<svg xmlns="http://www.w3.org/2000/svg" width="20" height="21" viewBox="0 0 20 21">
  <defs>
    <style>
      .cls-1 {
        fill: #51c188;
        fill-rule: evenodd;
      }
    </style>
  </defs>
  <path id="形状_49" data-name="形状 49" class="cls-1" d="M10,0.719a10,10,0,1,1-10,10A10,10,0,0,1,10,.719Zm6.577,5.368a1.3,1.3,0,0,0-1.851,0L9.107,12.543,6.264,9.783a1.264,1.264,0,0,0-1.719,0l-0.2.128a1.177,1.177,0,0,0,0,1.669l3.9,3.787a1.264,1.264,0,0,0,1.719,0l6.611-7.419a1.29,1.29,0,0,0,0-1.861h0Z"/>
</svg>
