<?xml version="1.0" encoding="utf-8"?>
<!-- Generator: Adobe Illustrator 23.0.4, SVG Export Plug-In . SVG Version: 6.00 Build 0)  -->
<svg version="1.1" id="图层_1" xmlns="http://www.w3.org/2000/svg" xmlns:xlink="http://www.w3.org/1999/xlink" x="0px" y="0px"
	 viewBox="0 0 55 55" style="enable-background:new 0 0 55 55;" xml:space="preserve">
<style type="text/css">
	.st0{fill:#6CBC7C;}
	.st1{fill-rule:evenodd;clip-rule:evenodd;fill:#FFFFFF;}
</style>
<circle id="椭圆_1" class="st0" cx="27.5" cy="27.3" r="27"/>
<path id="形状_40_拷贝_2" class="st1" d="M38.9,39.3c-2.8,0-5.1-2.3-5.1-5.1c0-2.8,2.3-5.1,5.1-5.1c2.8,0,5.1,2.3,5.1,5.1
	C44,37.1,41.7,39.3,38.9,39.3C38.9,39.3,38.9,39.3,38.9,39.3z M38.9,31.9c-1.3,0-2.4,1.1-2.4,2.4c0,1.3,1.1,2.4,2.4,2.4
	c1.3,0,2.4-1.1,2.4-2.4C41.2,32.9,40.2,31.9,38.9,31.9z M34.4,21.8l1.8-2c2,1.8,3.4,4.3,4,7l-2.7,0.5C37.1,25.2,36,23.2,34.4,21.8z
	 M30.1,22.7h-5c-1.6,0-2.9-1.3-2.9-2.9c0,0,0,0,0,0v-5c0-1.6,1.3-2.9,2.9-2.9h5c1.6,0,2.9,1.3,2.9,2.9v5
	C32.9,21.4,31.6,22.7,30.1,22.7L30.1,22.7z M30.2,14.9c0-0.1-0.1-0.2-0.2-0.2h-5c-0.1,0-0.2,0.1-0.2,0.2v5c0,0.1,0.1,0.2,0.2,0.2h5
	c0.1,0,0.2-0.1,0.2-0.2L30.2,14.9L30.2,14.9z M12.2,39l-1.2-2l4.3-7.4l2.4,0l4,7.4l-1.2,2L12.2,39L12.2,39z M16.5,33l-1.9,3.3h3.7
	L16.5,33z M14.9,27.2c0.5-2.8,1.8-5.4,4-7.3l1.9,2c-1.7,1.5-2.7,3.6-3.1,5.8L14.9,27.2z M27.6,39.3c1.8,0,3.6-0.5,5.2-1.4l1.4,2.3
	c-3.6,2.2-8.1,2.4-11.9,0.7l1.1-2.5C24.7,39,26.1,39.3,27.6,39.3L27.6,39.3z"/>
</svg>
