<?xml version="1.0" encoding="utf-8"?>
<!-- Generator: Adobe Illustrator 23.0.4, SVG Export Plug-In . SVG Version: 6.00 Build 0)  -->
<svg version="1.1" id="图层_1" xmlns="http://www.w3.org/2000/svg" xmlns:xlink="http://www.w3.org/1999/xlink" x="0px" y="0px"
	 viewBox="0 0 55 55" style="enable-background:new 0 0 55 55;" xml:space="preserve">
<style type="text/css">
	.st0{fill:#F47672;}
	.st1{fill-rule:evenodd;clip-rule:evenodd;fill:#FFFFFF;}
</style>
<circle id="椭圆_1" class="st0" cx="27.7" cy="27.7" r="27"/>
<path id="形状_33" class="st1" d="M38.1,39.7H16.7c-0.9,0-1.6-0.7-1.6-1.5v-20c0-0.9,0.8-1.5,1.6-1.5h3.6v-0.2
	c0.1-0.9,0.8-1.5,1.7-1.5c0.8,0.1,1.4,0.7,1.5,1.5v0.2h7.9v-0.2c0.1-0.9,0.8-1.5,1.7-1.5c0.8,0.1,1.4,0.7,1.5,1.5v0.2h3.6
	c0.9,0,1.6,0.7,1.6,1.5v20C39.8,39,39,39.7,38.1,39.7z M21.3,30.8l4.5,4.2c0.4,0.4,1.1,0.4,1.5,0l7.1-6.6c0.4-0.4,0.4-1,0.1-1.3
	c0,0,0,0,0,0c-0.4-0.4-1.1-1.3-1.5-0.9l-6.3,5.9l-3.7-3.5c-0.4-0.4-1.1,0.5-1.5,0.9C20.9,29.7,20.9,30.3,21.3,30.8
	C21.2,30.7,21.3,30.7,21.3,30.8z M37.5,18.6h-2.9v0.2c-0.1,0.9-0.8,1.5-1.7,1.5c-0.8-0.1-1.4-0.7-1.5-1.5v-0.2h-7.9v0.2
	c-0.1,0.9-0.8,1.5-1.7,1.5c-0.8-0.1-1.4-0.7-1.5-1.5v-0.2h-3c-0.1,0-0.2,0.1-0.2,0.2v2.8h20.4c0-0.3,0-0.7,0-1.1c0-0.5,0-0.9,0-1.2
	c0-0.2,0-0.4,0-0.5C37.7,18.7,37.6,18.6,37.5,18.6C37.5,18.6,37.5,18.6,37.5,18.6z"/>
</svg>
