<?xml version="1.0" encoding="utf-8"?>
<!-- Generator: Adobe Illustrator 23.0.4, SVG Export Plug-In . SVG Version: 6.00 Build 0)  -->
<svg version="1.1" id="图层_1" xmlns="http://www.w3.org/2000/svg" xmlns:xlink="http://www.w3.org/1999/xlink" x="0px" y="0px"
	 viewBox="0 0 28 28" style="enable-background:new 0 0 28 28;" xml:space="preserve">
<style type="text/css">
	.st0{fill:#5794DD;}
	.st1{fill-rule:evenodd;clip-rule:evenodd;fill:#FFFFFF;}
</style>
<rect id="矩形_21" class="st0" width="28" height="28"/>
<path id="形状_30_拷贝" class="st1" d="M20.3,21.9h-1.1c-0.9,0-1.7-0.8-1.7-1.7v-6.7c0-0.9,0.8-1.7,1.7-1.7h1.1
	c0.9,0,1.7,0.8,1.7,1.7v6.7C22,21.1,21.2,21.9,20.3,21.9z M20.9,13.4c0-0.3-0.2-0.6-0.5-0.6c0,0,0,0-0.1,0h-1.1
	c-0.3,0-0.6,0.2-0.6,0.5c0,0,0,0,0,0.1v6.7c0,0.3,0.2,0.6,0.5,0.6c0,0,0,0,0.1,0h1.1c0.3,0,0.6-0.2,0.6-0.5c0,0,0,0,0-0.1L20.9,13.4
	L20.9,13.4z M21.4,9.2c-0.3,0-0.6-0.2-0.6-0.5c0,0,0,0,0-0.1V7.7l-3.9,4c-0.2,0.2-0.6,0.2-0.8,0c0,0,0,0,0,0l-2.4-2.5l-4.7,4.6
	c-0.2,0.2-0.6,0.2-0.8,0c-0.2-0.2-0.2-0.6,0-0.8l5-5c0.2-0.2,0.6-0.2,0.8,0c0,0,0,0,0,0l2.5,2.4l3.4-3.4h-0.9
	c-0.3,0-0.6-0.2-0.6-0.5c0,0,0,0,0-0.1c0-0.3,0.2-0.5,0.4-0.5c0.1,0,0.2,0,0.2,0.1h2.5L21.9,6C21.9,6,22,6,22,6.1c0,0,0,0,0,0v2.5
	C22,8.9,21.8,9.2,21.4,9.2C21.5,9.2,21.4,9.2,21.4,9.2z M8.3,14.5C8.3,14.8,8,15,7.7,15c-0.3,0-0.6-0.3-0.6-0.6s0.3-0.6,0.6-0.6
	S8.3,14.1,8.3,14.5C8.3,14.5,8.3,14.5,8.3,14.5z M8.9,16.3c0.9,0,1.7,0.8,1.7,1.7v2.2c0,0.9-0.8,1.7-1.7,1.7H7.7
	c-0.9,0-1.7-0.8-1.7-1.7V18c0-0.9,0.8-1.7,1.7-1.7L8.9,16.3L8.9,16.3z M7.1,18v2.2c0,0.3,0.2,0.6,0.5,0.6c0,0,0,0,0.1,0h1.1
	c0.3,0,0.6-0.2,0.6-0.5c0,0,0,0,0-0.1V18c0-0.3-0.2-0.6-0.5-0.6c0,0,0,0-0.1,0H7.7C7.4,17.4,7.2,17.6,7.1,18C7.1,18,7.1,18,7.1,18z
	 M13.4,14h1.1c0.9,0,1.7,0.8,1.7,1.7v4.5c0,0.9-0.8,1.7-1.7,1.7h-1.1c-0.9,0-1.7-0.8-1.7-1.7v-4.5C11.7,14.8,12.5,14,13.4,14
	L13.4,14z M12.9,20.2c0,0.3,0.2,0.6,0.5,0.6c0,0,0,0,0.1,0h1.1c0.3,0,0.6-0.2,0.6-0.5c0,0,0,0,0-0.1v-4.5c0-0.3-0.2-0.6-0.5-0.6
	c0,0,0,0-0.1,0h-1.1c-0.3,0-0.6,0.2-0.6,0.5c0,0,0,0,0,0.1L12.9,20.2L12.9,20.2z"/>
</svg>
