<?xml version="1.0" encoding="utf-8"?>
<!-- Generator: Adobe Illustrator 23.0.4, SVG Export Plug-In . SVG Version: 6.00 Build 0)  -->
<svg version="1.1" id="图层_1" xmlns="http://www.w3.org/2000/svg" xmlns:xlink="http://www.w3.org/1999/xlink" x="0px" y="0px"
	 viewBox="0 0 33 31" style="enable-background:new 0 0 33 31;" xml:space="preserve">
<style type="text/css">
	.st0{fill-rule:evenodd;clip-rule:evenodd;fill:#6ACED9;}
	.st1{fill-rule:evenodd;clip-rule:evenodd;fill:#FFFFFF;}
</style>
<path id="矩形_508" class="st0" d="M2,0h29c1.1,0,2,0.9,2,2v21c0,1.1-0.9,2-2,2H2c-1.1,0-2-0.9-2-2V2C0,0.9,0.9,0,2,0z M15,23h3v7
	h-3V23z M4,28h24v3H4V28z"/>
<path id="矩形_511" class="st1" d="M23,16v-2h6v2H23z M23,10h6v2h-6V10z M23,6h6v2h-6V6z M12,18.9L11,13l5.9,0.8
	C16.6,16.4,14.6,18.5,12,18.9z M8.1,17.7c-3.1-1-4.8-4.4-3.8-7.6s4.4-4.8,7.6-3.8c1.6,0.5,2.9,1.7,3.6,3.3c0,0,0,0,0,0.1L10,12
	L8.1,17.7z"/>
</svg>
