<?xml version="1.0" encoding="utf-8"?>
<!-- Generator: Adobe Illustrator 23.0.4, SVG Export Plug-In . SVG Version: 6.00 Build 0)  -->
<svg version="1.1" id="图层_1" xmlns="http://www.w3.org/2000/svg" xmlns:xlink="http://www.w3.org/1999/xlink" x="0px" y="0px"
	 viewBox="0 0 55 55" style="enable-background:new 0 0 55 55;" xml:space="preserve">
<style type="text/css">
	.st0{fill:#42B7C2;}
	.st1{fill-rule:evenodd;clip-rule:evenodd;fill:#FFFFFF;}
</style>
<circle id="椭圆_1_拷贝_13" class="st0" cx="27.3" cy="27.7" r="27"/>
<path id="形状_34_拷贝" class="st1" d="M38.7,26.5c-0.9,0-1.6-0.8-1.6-1.6v-2.6l-5.3,5.4c-0.6,0.6-1.6,0.7-2.2,0.1
	c0,0,0,0-0.1-0.1l-2.1-2.1l-5.3,5.4c-0.6,0.6-1.6,0.7-2.2,0.1c0,0,0,0-0.1-0.1c-0.6-0.7-0.6-1.7,0-2.3l6.4-6.6
	c0.6-0.6,1.6-0.7,2.2-0.1c0,0,0,0,0.1,0.1l2.1,2.1l4.2-4.3h-2.6c-0.9,0-1.6-0.7-1.6-1.7c0-0.9,0.7-1.6,1.6-1.6h6.4
	c0.9,0,1.6,0.8,1.6,1.6v6.6C40.4,25.7,39.6,26.4,38.7,26.5C38.7,26.5,38.7,26.5,38.7,26.5z M40.3,38c0,0.9-0.7,1.6-1.6,1.6H16.3
	c-0.9,0-1.6-0.8-1.6-1.6V16.6c0-0.9,0.7-1.6,1.6-1.6c0.9,0,1.6,0.7,1.6,1.6v19.8h20.8C39.6,36.4,40.4,37.1,40.3,38z"/>
</svg>
