<?xml version="1.0" encoding="utf-8"?>
<!-- Generator: Adobe Illustrator 23.0.4, SVG Export Plug-In . SVG Version: 6.00 Build 0)  -->
<svg version="1.1" id="图层_1" xmlns="http://www.w3.org/2000/svg" xmlns:xlink="http://www.w3.org/1999/xlink" x="0px" y="0px"
	 viewBox="0 0 28 28" style="enable-background:new 0 0 28 28;" xml:space="preserve">
<style type="text/css">
	.st0{fill-rule:evenodd;clip-rule:evenodd;fill:#7C7F84;}
</style>
<path id="形状_29" class="st0" d="M20.8,8.2l-6.3,6.7c-0.3,0.3-0.7,0.3-0.9,0c0,0,0,0,0,0L7.2,8.2C7.1,8.1,7,7.9,7,7.7
	c0-0.2,0.1-0.4,0.2-0.5c0.2-0.3,0.7-0.3,0.9,0c0,0,0,0,0,0l5.8,6.2l5.8-6.2c0.2-0.3,0.7-0.3,0.9,0c0,0,0,0,0,0
	C20.9,7.3,21,7.5,21,7.7C21,7.9,20.9,8.1,20.8,8.2z M8.2,13.1l5.8,6.2l5.8-6.2c0.2-0.3,0.7-0.3,0.9,0c0,0,0,0,0,0
	c0.1,0.1,0.2,0.3,0.2,0.5c0,0.2-0.1,0.4-0.2,0.5l-6.3,6.7C14.4,20.9,14.2,21,14,21c-0.2,0-0.4-0.1-0.5-0.2l-6.3-6.7
	C7.1,14,7,13.8,7,13.6c0-0.2,0.1-0.4,0.2-0.5C7.5,12.8,7.9,12.8,8.2,13.1C8.2,13,8.2,13,8.2,13.1z"/>
</svg>
