<?xml version="1.0" encoding="utf-8"?>
<!-- Generator: Adobe Illustrator 23.0.4, SVG Export Plug-In . SVG Version: 6.00 Build 0)  -->
<svg version="1.1" id="图层_1" xmlns="http://www.w3.org/2000/svg" xmlns:xlink="http://www.w3.org/1999/xlink" x="0px" y="0px"
	 viewBox="0 0 32 32" style="enable-background:new 0 0 32 32;" xml:space="preserve">
<style type="text/css">
	.st0{fill:#0096DB;}
	.st1{fill-rule:evenodd;clip-rule:evenodd;fill:#FFFFFF;}
</style>
<rect id="矩形_22_拷贝_2" class="st0" width="32" height="32"/>
<path id="形状_22" class="st1" d="M18.8,15.9l-9.1,8.9c-0.5,0.5-0.5,1.2,0,1.7c0,0,0,0,0,0c0.5,0.5,1.3,0.5,1.8,0l10-9.7
	c0.5-0.5,0.5-1.2,0-1.7c0,0,0,0,0,0c0,0-0.1-0.1-0.1-0.1c0,0,0,0,0,0l-9.8-9.5C11.1,5,10.3,5,9.8,5.4c-0.5,0.5-0.5,1.2,0,1.7
	c0,0,0,0,0,0L18.8,15.9z"/>
</svg>
