<?xml version="1.0" encoding="utf-8"?>
<!-- Generator: Adobe Illustrator 23.0.4, SVG Export Plug-In . SVG Version: 6.00 Build 0)  -->
<svg version="1.1" id="图层_1" xmlns="http://www.w3.org/2000/svg" xmlns:xlink="http://www.w3.org/1999/xlink" x="0px" y="0px"
	 viewBox="0 0 28 28" style="enable-background:new 0 0 28 28;" xml:space="preserve">
<style type="text/css">
	.st0{fill:#A394FB;}
	.st1{fill-rule:evenodd;clip-rule:evenodd;fill:#FFFFFF;}
</style>
<rect id="矩形_21" class="st0" width="28" height="28"/>
<path id="形状_20_拷贝" class="st1" d="M22.3,22.1L22.3,22.1c-0.4,0-0.7-0.3-0.7-0.7c0-1.8-0.9-3.5-2.3-4.6
	c-0.3-0.2-0.3-0.6-0.1-0.9c0,0,0,0,0,0c0.2-0.3,0.6-0.3,0.9-0.1c1.8,1.3,2.9,3.4,2.9,5.6C23,21.8,22.7,22.1,22.3,22.1z M15.8,15.7
	c-3.2,0-5.9,2.6-5.9,5.8c0,0.4-0.3,0.7-0.7,0.6c-0.3,0-0.6-0.3-0.6-0.6c0-2.9,1.8-5.5,4.6-6.6c-1.8-1.1-2.6-3.3-2-5.4
	c0.8-2.6,3.6-4,6.2-3.2c2,0.6,3.4,2.5,3.4,4.5C20.6,13.5,18.4,15.7,15.8,15.7L15.8,15.7z M17.6,7.8c-1.1-0.6-2.5-0.6-3.6,0
	c-1.1,0.6-1.8,1.8-1.8,3.1c0.1,2,1.7,3.5,3.7,3.4c1.9-0.1,3.4-1.6,3.4-3.4C19.3,9.6,18.7,8.4,17.6,7.8L17.6,7.8z M10.1,13.7
	c0.3,0,0.6,0.3,0.6,0.6s-0.3,0.6-0.6,0.6c0,0,0,0,0,0c-2.3,0.3-3.9,2.3-4,4.5c0,0.3-0.2,0.5-0.5,0.5C5.2,20,5,19.8,5,19.5
	c0-2.3,1.5-4.4,3.6-5.3C7.2,13.3,6.6,11.5,7,9.9c0.5-1.5,1.9-2.6,3.5-2.7C10.2,7.6,10,8,9.8,8.4c-1.4,0.5-2.2,2.1-1.7,3.5
	C8.4,12.8,9.2,13.5,10.1,13.7L10.1,13.7z M15.8,16.7c0.2-0.2,0.6-0.2,0.8,0c0.2,0.2,0.2,0.6,0,0.8c0,0,0,0,0,0
	c-0.2,0.2-0.6,0.2-0.8,0C15.5,17.3,15.5,17,15.8,16.7C15.7,16.7,15.7,16.7,15.8,16.7L15.8,16.7z M16.2,18.2c0.5,0.8,0.8,1.7,1,2.6
	c0,0.8-1.4,1.3-1.4,1.3s-1.4-0.5-1.4-1.3c0.2-0.9,0.5-1.8,1-2.6C15.6,18.4,15.9,18.4,16.2,18.2z"/>
</svg>
