<?xml version="1.0" encoding="utf-8"?>
<!-- Generator: Adobe Illustrator 23.0.4, SVG Export Plug-In . SVG Version: 6.00 Build 0)  -->
<svg version="1.1" id="图层_1" xmlns="http://www.w3.org/2000/svg" xmlns:xlink="http://www.w3.org/1999/xlink" x="0px" y="0px"
	 viewBox="0 0 64 64" style="enable-background:new 0 0 64 64;" xml:space="preserve">
<style type="text/css">
	.st0{fill:#333333;}
</style>
<path class="st0" d="M38.5,31.5c0,0.4-0.2,0.9-0.5,1.2l-23,23c-0.3,0.3-0.7,0.5-1.1,0.5s-0.8-0.2-1.1-0.5l-2.5-2.5
	C10,52.8,9.8,52.4,9.8,52s0.2-0.8,0.5-1.1l19.4-19.4L10.3,12.1C10,11.8,9.8,11.4,9.8,11s0.2-0.8,0.5-1.1l2.5-2.5
	c0.3-0.3,0.7-0.5,1.1-0.5s0.8,0.2,1.1,0.5l23,23C38.3,30.6,38.5,31.1,38.5,31.5L38.5,31.5z M57.5,31.5c0,0.4-0.2,0.9-0.5,1.2l-23,23
	c-0.3,0.3-0.7,0.5-1.1,0.5s-0.8-0.2-1.1-0.5l-2.5-2.5c-0.3-0.3-0.5-0.7-0.5-1.1s0.2-0.8,0.5-1.1l19.4-19.4L29.3,12.1
	c-0.3-0.3-0.5-0.7-0.5-1.1s0.2-0.8,0.5-1.1l2.5-2.5c0.3-0.3,0.7-0.5,1.1-0.5s0.8,0.2,1.1,0.5l23,23C57.3,30.6,57.5,31.1,57.5,31.5
	L57.5,31.5z"/>
</svg>
