<?xml version="1.0" encoding="utf-8"?>
<!-- Generator: Adobe Illustrator 23.0.4, SVG Export Plug-In . SVG Version: 6.00 Build 0)  -->
<svg version="1.1" id="图层_1" xmlns="http://www.w3.org/2000/svg" xmlns:xlink="http://www.w3.org/1999/xlink" x="0px" y="0px"
	 viewBox="0 0 28 28" style="enable-background:new 0 0 28 28;" xml:space="preserve">
<style type="text/css">
	.st0{fill:#6ACED9;}
	.st1{fill-rule:evenodd;clip-rule:evenodd;fill:#FFFFFF;}
</style>
<rect id="矩形_21_拷贝_3" class="st0" width="28" height="28"/>
<path id="形状_52" class="st1" d="M21.7,21.2c-0.2,0.2-0.5,0.3-0.8,0.3H7.1c-0.6,0-1-0.4-1.1-1V9.3c0-0.6,0.5-1,1.1-1h1.6V10
	c0,0,0.1,0,0.1-0.1v-2c0-0.2,0.2-0.4,0.5-0.4c0.2,0,0.4,0.2,0.4,0.4v2c0,0,0.1,0,0.1,0.1V8.3h8.4V10c0,0,0.1-0.1,0.1-0.1v-2
	c0-0.2,0.2-0.4,0.5-0.4c0.2,0,0.4,0.2,0.4,0.4v2c0,0,0.1,0.1,0.1,0.1V8.3h1.6c0.6,0,1,0.4,1.1,1v11.2C22,20.8,21.9,21,21.7,21.2z
	 M21,12.3H7v8c0,0.1,0.1,0.2,0.3,0.2h13.5c0.1,0,0.2-0.1,0.2-0.2V12.3z M16.9,18.1h2.2v1.1h-2.2V18.1z M16.9,16.1h2.2v1h-2.2V16.1
	L16.9,16.1z M16.9,14h2.2v1h-2.2V14z M12.9,18.1h2.3v1.1h-2.3V18.1z M12.9,16.1h2.3v1h-2.3V16.1L12.9,16.1z M12.9,14h2.3v1h-2.3V14z
	 M8.9,18.1h2.3v1.1H8.9V18.1z M8.9,16.1h2.3v1H8.9V16.1L8.9,16.1z M8.9,14h2.3v1H8.9V14z"/>
</svg>
