<?xml version="1.0" encoding="utf-8"?>
<!-- Generator: Adobe Illustrator 23.0.4, SVG Export Plug-In . SVG Version: 6.00 Build 0)  -->
<svg version="1.1" id="图层_1" xmlns="http://www.w3.org/2000/svg" xmlns:xlink="http://www.w3.org/1999/xlink" x="0px" y="0px"
	 viewBox="0 0 28 28" style="enable-background:new 0 0 28 28;" xml:space="preserve">
<style type="text/css">
	.st0{fill:#A394F8;}
	.st1{fill-rule:evenodd;clip-rule:evenodd;fill:#FFFFFF;}
</style>
<rect id="矩形_21_拷贝_2" class="st0" width="28" height="28"/>
<path id="形状_41_拷贝" class="st1" d="M17.8,23c-2.4,0.1-4.4-1.8-4.4-4.2c-0.1-2.4,1.8-4.4,4.2-4.4c2.4-0.1,4.4,1.8,4.4,4.2
	c0,0,0,0.1,0,0.1C22,21,20.2,23,17.8,23C17.8,23,17.8,23,17.8,23z M17.8,15.6c-1.7,0-3.1,1.3-3.1,3c0,1.7,1.3,3.1,3,3.1
	c1.7,0,3.1-1.3,3.1-3c0,0,0-0.1,0-0.1C20.8,17,19.5,15.7,17.8,15.6C17.8,15.6,17.8,15.6,17.8,15.6z M20,19.7h-2.3
	c-0.2,0-0.3-0.1-0.4-0.2c-0.1-0.1-0.2-0.3-0.2-0.4v-2.3h1.2v1.6H20L20,19.7L20,19.7L20,19.7z M19.4,6.3H7.2v15.2h5.1v1.3H6.6
	c-0.2,0-0.3-0.1-0.4-0.2C6.1,22.4,6,22.3,6,22.1V5.6C6,5.3,6.3,5,6.6,5c0,0,0,0,0,0h13.4c0.3,0,0.6,0.3,0.6,0.6v6.6h-1.2V6.3z
	 M8.4,15.4h4.3v1.3H8.5L8.4,15.4L8.4,15.4z M8.4,8.7H17V10H8.5L8.4,8.7L8.4,8.7z M17,13.2H8.5V12H17V13.2z"/>
</svg>
