<?xml version="1.0" encoding="utf-8"?>
<!-- Generator: Adobe Illustrator 23.0.4, SVG Export Plug-In . SVG Version: 6.00 Build 0)  -->
<svg version="1.1" id="图层_1" xmlns="http://www.w3.org/2000/svg" xmlns:xlink="http://www.w3.org/1999/xlink" x="0px" y="0px"
	 viewBox="0 0 28 28" style="enable-background:new 0 0 28 28;" xml:space="preserve">
<style type="text/css">
	.st0{fill:#5794DD;}
	.st1{fill-rule:evenodd;clip-rule:evenodd;fill:#FFFFFF;}
</style>
<rect id="矩形_21" class="st0" width="28" height="28"/>
<path id="形状_24_拷贝" class="st1" d="M21.7,22.3H5.6V7.1C5.5,6.3,6.1,5.6,6.9,5.6c0.1,0,0.2,0,0.3,0h8.1
	C16.2,5.5,16.9,6,17,6.8c0,0.1,0,0.3,0,0.4v4.1h3.8c0.7-0.1,1.4,0.4,1.6,1.1c0,0.1,0,0.3,0,0.4v9.5H21.7z M15.3,11.3V7.7
	c0-0.6-0.5-1-1.1-1H8.4c-0.6,0-1,0.4-1.1,1c0,0,0,0.1,0,0.1v13.6h1.5v-2.1h5v2.1h1.5C15.3,21.3,15.3,11.3,15.3,11.3z M20.6,13.4
	c0-0.6-0.5-1-1.1-1H17v8.9H18v-2.1h1.7v2.1h0.9L20.6,13.4L20.6,13.4z M18.6,17.6H18v-1h1.7v1L18.6,17.6L18.6,17.6z M18.6,15H18v-1
	h1.7v1L18.6,15L18.6,15z M9.5,17.6H8.8v-1.1h5v1.1H9.5z M9.5,15H8.8v-1.1h5v1L9.5,15L9.5,15z M12.2,10.8v1.6h-1.7v-1.6H8.8v-1h1.6
	V8.2h1.7v1.6h1.6v1H12.2z"/>
</svg>
