<?xml version="1.0" encoding="utf-8"?>
<!-- Generator: Adobe Illustrator 23.0.4, SVG Export Plug-In . SVG Version: 6.00 Build 0)  -->
<svg version="1.1" id="图层_1" xmlns="http://www.w3.org/2000/svg" xmlns:xlink="http://www.w3.org/1999/xlink" x="0px" y="0px"
	 viewBox="0 0 23 22" style="enable-background:new 0 0 23 22;" xml:space="preserve">
<style type="text/css">
	.st0{fill-rule:evenodd;clip-rule:evenodd;fill:#0096DB;}
</style>
<path id="形状_45" class="st0" d="M22.1,21.4c-0.3,0.3-0.7,0.4-1.1,0.4H1.7c-0.8,0-1.5-0.7-1.5-1.5c0,0,0,0,0,0V3.2
	c0-0.8,0.7-1.5,1.5-1.5c0,0,0,0,0,0h2.3v2.5c0,0,0.1-0.1,0.2-0.1V1c0-0.3,0.3-0.6,0.6-0.6C5,0.4,5.3,0.7,5.3,1v3.1
	c0.1,0,0.1,0.1,0.1,0.1V1.7h11.8v2.6c0.1,0,0.1-0.1,0.1-0.1V1c0-0.3,0.3-0.6,0.6-0.6s0.6,0.3,0.6,0.6v3.1c0.1,0,0.1,0.1,0.1,0.1V1.7
	H21c0.8,0,1.5,0.7,1.5,1.5c0,0,0,0,0,0v17.1C22.5,20.7,22.4,21.1,22.1,21.4z M21.1,7.9H1.6v12.2c0,0.2,0.2,0.3,0.4,0.3h18.8
	c0.2,0,0.3-0.2,0.3-0.3L21.1,7.9L21.1,7.9z M15.4,16.6h3.1v1.6h-3.1V16.6z M15.4,13.5h3.1v1.5h-3.1V13.5L15.4,13.5z M15.4,10.3h3.1
	v1.6h-3.1V10.3z M9.8,16.6H13v1.6H9.8L9.8,16.6L9.8,16.6z M9.8,13.5H13v1.5H9.8L9.8,13.5L9.8,13.5z M9.8,10.3H13v1.6H9.8L9.8,10.3
	L9.8,10.3z M4.2,16.6h3.2v1.6H4.2V16.6z M4.2,13.5h3.2v1.5H4.2V13.5L4.2,13.5z M4.2,10.3h3.2v1.6H4.2V10.3z"/>
</svg>
