<?xml version="1.0" encoding="utf-8"?>
<!-- Generator: Adobe Illustrator 23.0.4, SVG Export Plug-In . SVG Version: 6.00 Build 0)  -->
<svg version="1.1" id="图层_1" xmlns="http://www.w3.org/2000/svg" xmlns:xlink="http://www.w3.org/1999/xlink" x="0px" y="0px"
	 viewBox="0 0 18 17" style="enable-background:new 0 0 18 17;" xml:space="preserve">
<style type="text/css">
	.st0{fill-rule:evenodd;clip-rule:evenodd;fill:#2FBBFB;}
</style>
<path id="形状_47" class="st0" d="M14.1,17c-2.1,0.1-3.9-1.6-3.9-3.7c0.1-2.1,1.8-3.8,3.9-3.7c2.1-0.1,3.9,1.6,3.9,3.7
	c0,0,0,0,0,0C17.9,15.4,16.2,17.1,14.1,17z M15.5,14.1c-0.2-0.2-1.1-1.1-1.3-1.3c0,0,0-0.1,0-0.1c0-0.2,0-1.1,0-1.3
	c0-0.2-0.2-0.4-0.4-0.4c-0.2,0-0.4,0.2-0.4,0.4c0,0,0,0,0,0c0,0.5,0,1,0,1.5c0,0.1,0,0.2,0.1,0.3c0.3,0.3,1.3,1.3,1.6,1.5
	c0.1,0.1,0.2,0.1,0.4,0.1c0.2-0.1,0.3-0.3,0.2-0.5C15.5,14.2,15.5,14.1,15.5,14.1L15.5,14.1z M11.8,9.3H3.1c-0.4,0-0.8,0.3-0.8,0.7
	c0,0.4,0.3,0.8,0.7,0.8c0,0,0.1,0,0.1,0h6.8c-0.4,0.5-0.6,1.2-0.7,1.8H3c-0.4,0-0.7,0.2-0.7,0.6c0,0.4,0.2,0.7,0.6,0.7
	c0,0,0.1,0,0.1,0h6.3c0.2,1,0.7,1.9,1.5,2.6H0.8c-0.4,0-0.8-0.3-0.8-0.8V2.3c0-0.4,0.4-0.8,0.8-0.8h1.4v0.8c0,0.9,0.8,1.6,1.7,1.5
	c0.9,0,1.6-0.7,1.7-1.5V1.5h0.8v0.8c0,0.9,0.8,1.6,1.7,1.5c0.9,0,1.6-0.7,1.7-1.5V1.5h0.8v0.8c0,0.9,0.8,1.6,1.7,1.5
	c0.9,0,1.6-0.7,1.7-1.5V1.5h1.4c0.4,0,0.8,0.3,0.8,0.8v7.2C14.9,8.7,13.2,8.6,11.8,9.3L11.8,9.3z M14.1,6.7c0-0.4-0.4-0.8-0.8-0.8
	H3.1c-0.4,0-0.8,0.3-0.8,0.8c0,0.4,0.4,0.8,0.8,0.8h10.1C13.7,7.5,14,7.1,14.1,6.7z M12.4,3.1c-0.4,0-0.8-0.3-0.8-0.8V0.8
	C11.6,0.3,12,0,12.4,0c0.4,0,0.7,0.4,0.8,0.8v1.5C13.2,2.8,12.8,3.1,12.4,3.1z M8.2,3.1c-0.4,0-0.8-0.3-0.8-0.8V0.8
	C7.4,0.3,7.8,0,8.2,0C8.6,0.1,9,0.4,9,0.8v1.5C9,2.8,8.6,3.1,8.2,3.1z M3.9,3.1c-0.4,0-0.8-0.3-0.8-0.8V0.8C3.1,0.3,3.5,0,3.9,0
	c0.4,0,0.8,0.3,0.8,0.8v1.5C4.8,2.8,4.4,3.1,3.9,3.1z"/>
</svg>
