<?xml version="1.0" encoding="utf-8"?>
<!-- Generator: Adobe Illustrator 23.0.4, SVG Export Plug-In . SVG Version: 6.00 Build 0)  -->
<svg version="1.1" id="图层_1" xmlns="http://www.w3.org/2000/svg" xmlns:xlink="http://www.w3.org/1999/xlink" x="0px" y="0px"
	 viewBox="0 0 18 15" style="enable-background:new 0 0 18 15;" xml:space="preserve">
<style type="text/css">
	.st0{fill-rule:evenodd;clip-rule:evenodd;fill:#2FBBFB;}
</style>
<path id="形状_46" class="st0" d="M9.7,0.1C9.4-0.1,9.1,0,8.9,0.2L4.4,3.8l-3.6,0C0.6,3.8,0.4,3.8,0.2,4C0.1,4.1,0,4.3,0,4.5l0,6
	c0,0.2,0.1,0.4,0.2,0.5c0.1,0.1,0.3,0.2,0.6,0.2h3.6l4.5,3.6C9,14.9,9.2,15,9.4,15c0.1,0,0.2,0,0.3-0.1c0.3-0.1,0.4-0.4,0.4-0.7V0.8
	C10.2,0.5,10,0.2,9.7,0.1L9.7,0.1z M12.8,3.8c-0.4-0.2-0.8,0-1,0.4c-0.2,0.4,0,0.8,0.3,1c0,0,0,0,0,0c0.8,0.5,1.3,1.3,1.2,2.3
	c0.1,0.9-0.3,1.9-1.1,2.4c-0.4,0.2-0.5,0.6-0.4,1c0,0,0,0,0,0c0.1,0.3,0.4,0.4,0.7,0.4c0.1,0,0.2,0,0.3-0.1c1.3-0.8,2.1-2.2,2-3.7
	C14.9,5.9,14.1,4.5,12.8,3.8L12.8,3.8L12.8,3.8z M15.2,1.6c-0.4-0.2-0.8-0.1-1.1,0.2c-0.2,0.3-0.1,0.8,0.2,1c0,0,0,0,0,0
	c1.4,1.1,2.2,2.8,2.1,4.6c0.1,1.8-0.6,3.5-2,4.6c-0.3,0.2-0.5,0.7-0.2,1c0,0,0,0,0,0c0.1,0.2,0.4,0.3,0.7,0.3c0.2,0,0.3,0,0.4-0.1
	c1.8-1.4,2.8-3.6,2.7-5.9C18.1,5.2,17.1,3,15.2,1.6L15.2,1.6L15.2,1.6z"/>
</svg>
