<?xml version="1.0" encoding="utf-8"?>
<!-- Generator: Adobe Illustrator 23.0.4, SVG Export Plug-In . SVG Version: 6.00 Build 0)  -->
<svg version="1.1" id="图层_1" xmlns="http://www.w3.org/2000/svg" xmlns:xlink="http://www.w3.org/1999/xlink" x="0px" y="0px"
	 viewBox="0 0 19 19" style="enable-background:new 0 0 19 19;" xml:space="preserve">
<style type="text/css">
	.st0{fill-rule:evenodd;clip-rule:evenodd;fill:#FFFFFF;}
</style>
<path id="形状_12" class="st0" d="M18.5,16.3L14,11.7c-0.1,0-0.1-0.1-0.2-0.1c2.3-3.5,1.3-8.1-2.2-10.4S3.5-0.1,1.2,3.4
	s-1.3,8.1,2.2,10.4c2.5,1.6,5.7,1.6,8.2,0c0,0.1,0.1,0.1,0.1,0.2l4.5,4.5c0.6,0.6,1.6,0.6,2.2,0C19.1,17.9,19.1,16.9,18.5,16.3
	 M7.5,12.7c-2.8,0-5.1-2.3-5.1-5.1s2.3-5.1,5.1-5.1s5.1,2.3,5.1,5.1l0,0C12.7,10.4,10.4,12.7,7.5,12.7"/>
</svg>
