<?xml version="1.0" encoding="utf-8"?>
<!-- Generator: Adobe Illustrator 23.0.4, SVG Export Plug-In . SVG Version: 6.00 Build 0)  -->
<svg version="1.1" id="图层_1" xmlns="http://www.w3.org/2000/svg" xmlns:xlink="http://www.w3.org/1999/xlink" x="0px" y="0px"
	 viewBox="0 0 28 28" style="enable-background:new 0 0 28 28;" xml:space="preserve">
<style type="text/css">
	.st0{fill:#DEF4FE;}
	.st1{fill-rule:evenodd;clip-rule:evenodd;fill:#0095D6;}
</style>
<circle id="椭圆_1_拷贝_2" class="st0" cx="14" cy="14" r="14"/>
<path id="形状_1_拷贝_2" class="st1" d="M20.9,12.3L20,13.1c-0.5,0.4-1.2,0.4-1.6,0c-0.4-0.4-0.5-1.1-0.1-1.5c0,0,0,0,0.1-0.1
	l0.8-0.8c0.6-0.6,0.7-1.5,0.1-2.2c0,0-0.1-0.1-0.1-0.1c-0.7-0.6-1.7-0.6-2.4,0l-3.4,3.2c-0.6,0.6-0.7,1.5-0.1,2.2
	c0,0,0.1,0.1,0.1,0.1c0.4,0.4,0.5,1.1,0.1,1.5c0,0,0,0-0.1,0.1c-0.5,0.4-1.2,0.4-1.6,0c-1.5-1.3-1.6-3.6-0.2-5.1
	c0.1-0.1,0.1-0.2,0.2-0.2L15.2,7c1.6-1.4,4-1.4,5.7,0c1.5,1.4,1.6,3.6,0.2,5.1C21,12.2,20.9,12.3,20.9,12.3z M9.4,18.9
	c0.6,0.1,1.2,0,1.7-0.5l3.4-3.2c0.6-0.6,0.7-1.5,0.1-2.2c0,0-0.1-0.1-0.1-0.1c-0.4-0.4-0.5-1.1-0.1-1.5c0,0,0,0,0.1-0.1
	c0.5-0.4,1.2-0.4,1.6,0.1c1.5,1.3,1.6,3.6,0.2,5.1c-0.1,0.1-0.1,0.1-0.2,0.2L12.7,20c-1.6,1.4-4,1.3-5.6-0.1
	c-1.5-1.3-1.6-3.6-0.2-5.1c0,0,0.1-0.1,0.1-0.1l0.8-0.8c0.5-0.4,1.2-0.4,1.6,0c0.4,0.4,0.5,1,0.1,1.5c0,0,0,0-0.1,0.1l-0.8,0.8
	c-0.5,0.4-0.7,1-0.5,1.6C8.3,18.3,8.8,18.8,9.4,18.9z"/>
</svg>
