<?xml version="1.0" encoding="utf-8"?>
<!-- Generator: Adobe Illustrator 23.0.4, SVG Export Plug-In . SVG Version: 6.00 Build 0)  -->
<svg version="1.1" id="图层_1" xmlns="http://www.w3.org/2000/svg" xmlns:xlink="http://www.w3.org/1999/xlink" x="0px" y="0px"
	 viewBox="0 0 20 16" style="enable-background:new 0 0 20 16;" xml:space="preserve">
<style type="text/css">
	.st0{fill-rule:evenodd;clip-rule:evenodd;fill:#F48A03;}
</style>
<path id="形状_46" class="st0" d="M10.8,0.1C10.5-0.1,10.1,0,9.9,0.2L4.9,4l-4,0C0.7,4,0.4,4.1,0.3,4.2C0.1,4.4,0,4.6,0,4.8l0,6.4
	c0,0.2,0.1,0.4,0.3,0.6C0.4,11.9,0.6,12,0.9,12h4l5,3.8c0.2,0.1,0.4,0.2,0.6,0.2c0.1,0,0.3,0,0.4-0.1c0.3-0.1,0.5-0.4,0.5-0.7V0.8
	C11.3,0.5,11.1,0.2,10.8,0.1L10.8,0.1z M14.2,4.1c-0.4-0.2-0.9,0-1.1,0.4c-0.2,0.4,0,0.9,0.3,1c0,0,0,0,0.1,0
	c0.9,0.5,1.4,1.4,1.4,2.4c0.1,1-0.4,2-1.3,2.5c-0.4,0.2-0.6,0.6-0.4,1c0,0,0,0,0,0.1c0.2,0.3,0.5,0.4,0.8,0.4c0.1,0,0.3,0,0.4-0.1
	c1.4-0.8,2.3-2.3,2.2-4C16.6,6.3,15.6,4.8,14.2,4.1L14.2,4.1L14.2,4.1z M16.9,1.7C16.5,1.5,16,1.6,15.7,2c-0.2,0.3-0.2,0.8,0.2,1.1
	c0,0,0,0,0.1,0c1.6,1.1,2.4,3,2.3,4.9c0.1,1.9-0.7,3.8-2.2,4.9c-0.4,0.2-0.5,0.7-0.3,1c0,0,0,0,0,0.1c0.2,0.2,0.4,0.4,0.7,0.4
	c0.2,0,0.3,0,0.5-0.1c2-1.4,3.1-3.8,3-6.3C20.1,5.5,18.9,3.1,16.9,1.7L16.9,1.7z"/>
</svg>
