<?xml version="1.0" encoding="utf-8"?>
<!-- Generator: Adobe Illustrator 23.0.4, SVG Export Plug-In . SVG Version: 6.00 Build 0)  -->
<svg version="1.1" id="图层_1" xmlns="http://www.w3.org/2000/svg" xmlns:xlink="http://www.w3.org/1999/xlink" x="0px" y="0px"
	 viewBox="0 0 28 28" style="enable-background:new 0 0 28 28;" xml:space="preserve">
<style type="text/css">
	.st0{fill:#A394F8;}
	.st1{fill-rule:evenodd;clip-rule:evenodd;fill:#FFFFFF;}
</style>
<rect id="矩形_21" class="st0" width="28" height="28"/>
<path id="形状_10_拷贝" class="st1" d="M21.4,19.2h-1c0-0.4,0-0.7-0.1-1.1h0.8v-0.5c0-1.6-1-3.1-2.6-3.5l-0.1,0
	c-0.3-0.1-0.5-0.4-0.4-0.8c0.1-0.2,0.2-0.3,0.4-0.4c0.6-0.3,1-1,1-1.7c0-0.8-0.8-1.5-1.3-1.1c-0.1-0.6-0.3-1.2-0.2-0.4
	c-0.1-0.5-0.3-1-0.6-1.5c0,0,0.1,0,0.1,0c1.6,0.1,2.9,1.4,2.9,3c0,0.7-0.3,1.5-0.7,2l0,0c1.5,0.9,2.5,2.5,2.5,4.3v0.9
	C22,18.9,21.8,19.2,21.4,19.2C21.4,19.2,21.4,19.2,21.4,19.2z M16.1,13.5c2.2,1,3.6,3.2,3.6,5.7v1.2c0,0.3-0.2,0.6-0.6,0.6H8.9
	c-0.3,0-0.6-0.3-0.6-0.6v-1.2c0-2.4,1.4-4.7,3.6-5.7c-0.8-0.7-1.3-1.8-1.3-2.9C10.5,8.7,12,7.1,14,7c2,0.1,3.5,1.7,3.4,3.7
	C17.4,11.8,17,12.8,16.1,13.5L16.1,13.5z M9.1,19.4V20h9.7v-0.6c0.1-2.8-2.1-5.1-4.9-5.2C11.2,14.3,9.1,16.6,9.1,19.4z M14,8
	c-1.4,0-2.5,1.2-2.5,2.6c0,1.4,1.1,2.6,2.5,2.6c1.4,0,2.5-1.2,2.5-2.6C16.5,9.2,15.4,8.1,14,8z M11,8c-0.4,0.4-0.8,1-1,1.6
	c-0.8,0.2-1.3,0.9-1.3,1.7c0,0.7,0.4,1.3,1,1.7c0.3,0.1,0.5,0.5,0.4,0.8C10,13.9,9.9,14,9.7,14.1l-0.1,0l0,0C8,14.5,6.9,16,7,17.6
	v0.5h0.7c-0.1,0.4-0.1,0.7-0.1,1.1h-1c-0.3,0-0.6-0.3-0.6-0.6v-0.9c0-1.8,0.9-3.4,2.5-4.3c-0.5-0.6-0.7-1.3-0.7-2c0-1.6,1.2-3,2.9-3
	C10.7,8.1,10.9,8,11,8C11,7.9,11,8,11,8L11,8z M11.6,7.3c-0.3,0.3-0.5,0.5-0.6,0.6C11.2,7.6,11.4,7.4,11.6,7.3L11.6,7.3z"/>
</svg>
