<?xml version="1.0" encoding="utf-8"?>
<!-- Generator: Adobe Illustrator 23.0.4, SVG Export Plug-In . SVG Version: 6.00 Build 0)  -->
<svg version="1.1" id="图层_1" xmlns="http://www.w3.org/2000/svg" xmlns:xlink="http://www.w3.org/1999/xlink" x="0px" y="0px"
	 viewBox="0 0 28 28" style="enable-background:new 0 0 28 28;" xml:space="preserve">
<style type="text/css">
	.st0{fill-rule:evenodd;clip-rule:evenodd;fill:#A394F8;}
	.st1{fill-rule:evenodd;clip-rule:evenodd;fill:#FFFFFF;}
</style>
<path id="矩形_21_拷贝" class="st0" d="M0,0.1h28v27H0V0.1z"/>
<path id="形状_27" class="st1" d="M12.5,14.6H7c-0.4,0-0.7,0.1-1,0.4c-0.3,0.2-0.4,0.6-0.4,0.9v5.3c0,0.7,0.6,1.3,1.4,1.3h5.5
	c0.4,0,0.7-0.1,1-0.4c0.3-0.2,0.4-0.6,0.4-0.9V16c0-0.4-0.1-0.7-0.4-0.9C13.2,14.8,12.8,14.6,12.5,14.6L12.5,14.6L12.5,14.6z
	 M12.3,20.3c0,0.4-0.4,0.8-0.8,0.8c0,0,0,0,0,0H7.9c-0.4,0-0.8-0.3-0.8-0.8v-3.4c0-0.4,0.4-0.8,0.8-0.8h3.6c0.4,0,0.8,0.3,0.8,0.8
	L12.3,20.3L12.3,20.3z M22,14.6h-5.5c-0.4,0-0.7,0.1-1,0.4c-0.3,0.2-0.4,0.6-0.4,0.9v5.3c0,0.7,0.6,1.3,1.4,1.3H22
	c0.7,0,1.4-0.6,1.4-1.3V16c0-0.4-0.1-0.7-0.4-0.9C22.7,14.8,22.3,14.6,22,14.6L22,14.6L22,14.6z M21.8,20.3c0,0.4-0.4,0.8-0.8,0.8
	c0,0,0,0,0,0h-3.6c-0.4,0-0.8-0.3-0.8-0.8v-3.4c0-0.4,0.4-0.8,0.8-0.8H21c0.4,0,0.8,0.3,0.8,0.8L21.8,20.3L21.8,20.3z M12.5,5.5H7
	c-0.4,0-0.7,0.1-1,0.4C5.7,6.1,5.6,6.5,5.6,6.8v5.3c0,0.4,0.1,0.7,0.4,0.9c0.3,0.2,0.6,0.4,1,0.4h5.5c0.4,0,0.7-0.1,1-0.4
	c0.3-0.2,0.4-0.6,0.4-0.9V6.8C13.8,6.1,13.2,5.5,12.5,5.5L12.5,5.5z M12.3,11.2c0,0.4-0.4,0.8-0.8,0.8c0,0,0,0,0,0H7.9
	c-0.4,0-0.8-0.3-0.8-0.8V7.8C7.2,7.3,7.5,7,7.9,7h3.6c0.4,0,0.8,0.3,0.8,0.8L12.3,11.2L12.3,11.2z M18.1,13c0.6,0.6,1.6,0.6,2.3,0
	l2.5-2.4c0.6-0.6,0.6-1.5,0.1-2.1c0,0,0,0-0.1-0.1L20.4,6c-0.6-0.6-1.6-0.6-2.3,0l-2.5,2.4c-0.6,0.6-0.6,1.5-0.1,2.1
	c0,0,0,0,0.1,0.1L18.1,13z"/>
</svg>
