<?xml version="1.0" encoding="utf-8"?>
<!-- Generator: Adobe Illustrator 23.0.4, SVG Export Plug-In . SVG Version: 6.00 Build 0)  -->
<svg version="1.1" id="图层_1" xmlns="http://www.w3.org/2000/svg" xmlns:xlink="http://www.w3.org/1999/xlink" x="0px" y="0px"
	 viewBox="0 0 24 24" style="enable-background:new 0 0 24 24;" xml:space="preserve">
<style type="text/css">
	.st0{fill:#FFFFFF;stroke:#0096DB;stroke-width:0.5;}
	.st1{fill-rule:evenodd;clip-rule:evenodd;fill:#0096DB;}
</style>
<rect id="矩形_22_拷贝_3" y="0.7" class="st0" width="23.3" height="23.1"/>
<path id="形状_17_拷贝_2" class="st1" d="M17.7,11.7c-0.3,0-0.6,0.3-0.6,0.6v0v5.2c0,0.8-0.6,1.4-1.4,1.4H7.3
	c-0.8,0-1.4-0.6-1.4-1.4V9.2c0-0.8,0.6-1.4,1.4-1.4h5.2c0.3,0,0.6-0.3,0.6-0.6c0-0.3-0.3-0.6-0.6-0.6c0,0,0,0,0,0H7.3
	c-1.5,0-2.6,1.2-2.7,2.6v8.4c0,1.5,1.2,2.6,2.7,2.6h8.4c1.5,0,2.6-1.2,2.7-2.6v-5.2C18.3,12,18.1,11.7,17.7,11.7L17.7,11.7
	L17.7,11.7L17.7,11.7z M19.2,7.1l-1.4-1.4c-0.5-0.5-1.3-0.5-1.8,0l-6.5,6.5l0,0l0,0c-0.2,0.2-0.3,0.4-0.3,0.6L8.7,15
	c-0.1,0.5,0.2,1,0.7,1.1c0.1,0,0.1,0,0.2,0c0.1,0,0.1,0,0.2,0l2.3-0.4c0.3,0,0.5-0.2,0.7-0.4l0,0l6.5-6.5
	C19.7,8.4,19.7,7.6,19.2,7.1C19.2,7.1,19.2,7.1,19.2,7.1L19.2,7.1z M10.2,13.7l1,1l-1.2,0.2L10.2,13.7z M18.4,8l-6.1,6l-1.5-1.5
	l6.1-6c0,0,0.1,0,0.1,0l1.4,1.4C18.4,8,18.4,8,18.4,8L18.4,8L18.4,8z"/>
</svg>
