<?xml version="1.0" encoding="utf-8"?>
<!-- Generator: Adobe Illustrator 23.0.4, SVG Export Plug-In . SVG Version: 6.00 Build 0)  -->
<svg version="1.1" id="图层_1" xmlns="http://www.w3.org/2000/svg" xmlns:xlink="http://www.w3.org/1999/xlink" x="0px" y="0px"
	 viewBox="0 0 28 28" style="enable-background:new 0 0 28 28;" xml:space="preserve">
<style type="text/css">
	.st0{fill:#0A9ADC;}
	.st1{fill-rule:evenodd;clip-rule:evenodd;fill:#FFFFFF;}
</style>
<rect id="矩形_21_拷贝_4" class="st0" width="28" height="28"/>
<path id="形状_900" class="st1" d="M18.9,22c-2.2,0.1-4-1.7-4.1-3.8c0.1-2.2,1.9-3.9,4.1-3.8c2.2-0.1,4,1.7,4.1,3.8
	C22.9,20.3,21.1,22.1,18.9,22L18.9,22z M18.9,15.7c-1.4,0.1-2.4,1.3-2.3,2.6c0.1,1.4,1.3,2.4,2.6,2.3c1.3-0.1,2.3-1.2,2.3-2.5
	C21.5,16.7,20.4,15.6,18.9,15.7L18.9,15.7z M18.2,16.8h1.4v1h0.8v1.3h-2.2L18.2,16.8L18.2,16.8z M14.4,21.3H7.9
	c-1,0-1.9-0.8-1.9-1.8V7.8C6,6.8,6.9,6,7.9,6h10.6c1,0,1.9,0.8,1.9,1.8v5.6H19V7.8c0-0.3-0.2-0.5-0.5-0.4H7.9
	c-0.3,0-0.5,0.2-0.5,0.4v11.8c0,0.3,0.2,0.5,0.5,0.4h6.6L14.4,21.3L14.4,21.3z M10.2,13.1l-2.1-2l1-0.9l1,1l1.9-2l1.1,0.9L10.2,13.1
	z M17.5,12.2h-4v-1.3h4L17.5,12.2L17.5,12.2z M10.2,17.8l-2.1-2l1-0.9l1,1l1.9-2l1.1,0.9L10.2,17.8z"/>
</svg>
