<?xml version="1.0" encoding="utf-8"?>
<!-- Generator: Adobe Illustrator 23.0.4, SVG Export Plug-In . SVG Version: 6.00 Build 0)  -->
<svg version="1.1" id="图层_1" xmlns="http://www.w3.org/2000/svg" xmlns:xlink="http://www.w3.org/1999/xlink" x="0px" y="0px"
	 viewBox="0 0 21 20" style="enable-background:new 0 0 21 20;" xml:space="preserve">
<style type="text/css">
	.st0{fill-rule:evenodd;clip-rule:evenodd;fill:#0A9ADC;}
</style>
<path id="椭圆_703_拷贝_2" class="st0" d="M20.4,13.8V4.2c0-2.3-2-4.2-4.3-4.2c0,0-0.1,0-0.1,0H4.9C2.5-0.1,0.5,1.7,0.4,4.1
	c0,0,0,0.1,0,0.1v13.9c0,0.7,0.4,1.3,1,1.7C1.7,19.9,1.9,20,2.2,20c0.4,0,0.8-0.1,1.1-0.4l2.4-1.4c0.4-0.1,0.7-0.2,1.1-0.3H16
	c2.3,0.1,4.3-1.7,4.4-4.1C20.4,13.8,20.4,13.8,20.4,13.8L20.4,13.8L20.4,13.8z M5,7.2c1.1,0,2,0.9,2,2c0,1.1-0.9,2-2,2
	c-1.1,0-2-0.9-2-2C2.9,8.1,3.8,7.2,5,7.2C5,7.2,5,7.2,5,7.2z M10.7,7.2c1.1,0,2,0.9,2,2s-0.9,2-2,2c-1.1,0-2-0.9-2-2
	C8.7,8.1,9.6,7.2,10.7,7.2C10.7,7.2,10.7,7.2,10.7,7.2z M15.9,7.2c1.1,0,2,0.9,2,2s-0.9,2-2,2c-1.1,0-2-0.9-2-2
	C13.9,8.1,14.8,7.2,15.9,7.2z"/>
</svg>
