<?xml version="1.0" encoding="utf-8"?>
<!-- Generator: Adobe Illustrator 23.0.4, SVG Export Plug-In . SVG Version: 6.00 Build 0)  -->
<svg version="1.1" id="图层_1" xmlns="http://www.w3.org/2000/svg" xmlns:xlink="http://www.w3.org/1999/xlink" x="0px" y="0px"
	 viewBox="0 0 27 28" style="enable-background:new 0 0 27 28;" xml:space="preserve">
<style type="text/css">
	.st0{fill:#6ACED9;}
	.st1{fill-rule:evenodd;clip-rule:evenodd;fill:#FFFFFF;}
</style>
<rect id="矩形_21" y="0.3" class="st0" width="27" height="27"/>
<path id="形状_35" class="st1" d="M8.7,22.2c-1.1,0-1.9-0.8-2-1.8V7.6c0-1.1,0.9-1.9,2-1.8h7.9c0.5,0.1,1,0.3,1.3,0.6
	c0.9,0.8,1.4,1.3,2.5,2.4c0.4,0.3,0.7,0.7,0.7,1.2v10.4c0,1.1-0.9,1.9-2,1.8c0,0,0,0,0,0H8.7z M8.8,7.2c-0.3,0-0.5,0.2-0.6,0.5v12.5
	c0,0.1,0.1,0.3,0.2,0.4c0.1,0.1,0.2,0.2,0.4,0.2h10.3c0.1,0,0.3-0.1,0.4-0.2c0.1-0.1,0.2-0.2,0.2-0.4v-9.7h-2.6
	c-1,0-1.2-0.4-1.2-1.3v-2H8.8z M12,15.4l-1.5-1.5c0.8-0.1,2-0.2,2-0.2l0.2,0l0.1-0.2c0,0,0.6-1.2,1-1.9c0.4,0.7,0.9,1.8,1,1.8
	l0.1,0.2l0.2,0c0,0,1.3,0.1,2.1,0.2l-1.5,1.5l0.2,2.1l-2.1-0.9l-2.1,0.9L12,15.4z"/>
</svg>
