<?xml version="1.0" encoding="utf-8"?>
<!-- Generator: Adobe Illustrator 23.0.4, SVG Export Plug-In . SVG Version: 6.00 Build 0)  -->
<svg version="1.1" id="图层_1" xmlns="http://www.w3.org/2000/svg" xmlns:xlink="http://www.w3.org/1999/xlink" x="0px" y="0px"
	 viewBox="0 0 63 62" style="enable-background:new 0 0 63 62;" xml:space="preserve">
<style type="text/css">
	.st0{opacity:0.25;fill:#F0BD5C;enable-background:new    ;}
	.st1{fill:#F0BD5C;}
	.st2{fill-rule:evenodd;clip-rule:evenodd;fill:#FFFFFF;}
</style>
<circle id="椭圆_1" class="st0" cx="31.7" cy="31" r="31"/>
<circle id="椭圆_1_拷贝_14" class="st1" cx="31.2" cy="31.5" r="23"/>
<path id="形状_530" class="st2" d="M26,37.4h11.1l-1.5,6.5h-1.9c-0.2,1.2-1.4,1.9-2.5,1.6c-0.8-0.2-1.5-0.8-1.6-1.6h-2.1L26,37.4z
	 M35.5,24.4l0.2,1.6l-0.4,0.4l0.5,0.4l-0.2,0.9l-0.4,0.2l0.3,0.3l-0.2,1L35,29.4l0.3,0.4l-0.2,1.1l-0.7,0.3l-5-1.3l-1.9-0.1l0-4.7
	l1.7-0.1l4-4.2c2,1.4,0.2,2.9-1.1,3.9L35.5,24.4z M25.6,35.7h2.7c-0.4-2.2-1.1-4.3-2.1-6.2c-0.9-2-1.8-3.8-1.5-5.3
	c0.3-1.8,1.5-3.4,3.2-4.2c1.1-0.6,2.4-0.8,3.6-0.8c1.3,0,2.5,0.3,3.6,0.9c1.6,0.8,2.7,2.3,3,4.1c0.3,1.5-0.5,3.4-1.5,5.3
	c-1,2-1.7,4.1-2.1,6.3h2.7c0.4-1.8,1-3.5,1.8-5.1c1.1-2.4,2.1-4.6,1.7-6.9c-0.4-2.6-2.1-4.8-4.4-6c-1.5-0.8-3.1-1.2-4.8-1.2
	c-1.7,0-3.3,0.3-4.8,1.1c-2.4,1.2-4.1,3.4-4.6,6.1c-0.5,2.4,0.5,4.6,1.7,7C24.6,32.3,25.3,34,25.6,35.7L25.6,35.7L25.6,35.7z"/>
</svg>
