<?xml version="1.0" encoding="utf-8"?>
<!-- Generator: Adobe Illustrator 23.0.4, SVG Export Plug-In . SVG Version: 6.00 Build 0)  -->
<svg version="1.1" id="图层_1" xmlns="http://www.w3.org/2000/svg" xmlns:xlink="http://www.w3.org/1999/xlink" x="0px" y="0px"
	 viewBox="0 0 42 42" style="enable-background:new 0 0 42 42;" xml:space="preserve">
<style type="text/css">
	.st0{fill:#FEF3EF;}
	.st1{fill-rule:evenodd;clip-rule:evenodd;fill:#FEAB8A;}
</style>
<circle id="椭圆_4_拷贝_2" class="st0" cx="21" cy="21" r="21"/>
<path id="形状_14_拷贝" class="st1" d="M29.4,31.7H12.8c-1.5,0-2.7-1.2-2.7-2.7V14.7c0-1.5,1.2-2.7,2.7-2.7h1.3v1.7h-1.3
	c-0.6,0-1.1,0.5-1.1,1.1V29c0,0.6,0.5,1.1,1.1,1.1h16.6c0.6,0,1.1-0.5,1.1-1.1V14.7c0-0.6-0.5-1.1-1.1-1.1h-1.5V12h1.5
	c1.5,0,2.7,1.2,2.7,2.7V29C32.1,30.5,30.9,31.7,29.4,31.7z M20.3,26.4v-3h-3.1v-1.7h3.1v-3h1.6v3H25v1.7h-3.1v3L20.3,26.4L20.3,26.4
	z M23.7,15.5h-5.4c-1.6,0-2.9-1.3-2.9-2.9s1.3-2.9,2.9-2.9h5.4c1.6,0,2.9,1.4,2.9,3C26.6,14.2,25.3,15.5,23.7,15.5L23.7,15.5z
	 M23.7,11.4h-5.4c-0.7,0-1.2,0.6-1.2,1.2s0.6,1.2,1.2,1.2h5.4c0.7,0,1.2-0.6,1.2-1.2C25,11.9,24.4,11.4,23.7,11.4L23.7,11.4
	L23.7,11.4z"/>
</svg>
