<?xml version="1.0" encoding="utf-8"?>
<!-- Generator: Adobe Illustrator 23.0.4, SVG Export Plug-In . SVG Version: 6.00 Build 0)  -->
<svg version="1.1" id="图层_1" xmlns="http://www.w3.org/2000/svg" xmlns:xlink="http://www.w3.org/1999/xlink" x="0px" y="0px"
	 viewBox="0 0 62 62" style="enable-background:new 0 0 62 62;" xml:space="preserve">
<style type="text/css">
	.st0{opacity:0.25;fill:#43CF7D;enable-background:new    ;}
	.st1{fill-rule:evenodd;clip-rule:evenodd;fill:#43CF7D;}
	.st2{fill-rule:evenodd;clip-rule:evenodd;fill:#FFFFFF;}
</style>
<circle id="椭圆_1_拷贝_15" class="st0" cx="31.5" cy="31" r="30.5"/>
<path id="椭圆_1_拷贝_13" class="st1" d="M30.9,7.9c12.6,0.1,22.7,10.4,22.6,23c0.1,12.6-10,22.9-22.6,23
	c-12.6-0.1-22.7-10.4-22.6-23C8.2,18.3,18.3,8,30.9,7.9z"/>
<path id="形状_531" class="st2" d="M43,34.6c-0.3,1.3-2.3,3.2-3.7,3.2H22c-1.3,0-3.4-1.9-3.7-3.2c-0.1-0.1-0.1-0.3-0.2-0.4v-13
	c0.2-1.6,2.5-3.7,4-3.7h17c1.5,0,3.7,2,3.9,3.5c0,0.1,0.1,0.2,0.1,0.2v13.1C43.1,34.4,43.1,34.5,43,34.6z M40.8,22.1
	c0-1.5-0.5-2-1.7-2c-2.8,0-5.6,0-8.4,0h-8.4c-1.3,0-1.7,0.5-1.8,2v11.1c0,1.5,0.5,2,1.8,2h16.8c1.3,0,1.7-0.5,1.7-2L40.8,22.1
	L40.8,22.1z M35.1,26.9h2.8v6.6h-2.8C35.1,33.5,35.1,26.9,35.1,26.9z M29.3,23.5h2.8v10h-2.8V23.5z M23.5,28.6h2.8v5h-2.8V28.6
	L23.5,28.6z M27.8,39.6h5.8v1.6h4.4v2.6H23.4v-2.5h4.4L27.8,39.6L27.8,39.6z"/>
</svg>
