<?xml version="1.0" encoding="utf-8"?>
<!-- Generator: Adobe Illustrator 23.0.4, SVG Export Plug-In . SVG Version: 6.00 Build 0)  -->
<svg version="1.1" id="图层_1" xmlns="http://www.w3.org/2000/svg" xmlns:xlink="http://www.w3.org/1999/xlink" x="0px" y="0px"
	 viewBox="0 0 28 28" style="enable-background:new 0 0 28 28;" xml:space="preserve">
<style type="text/css">
	.st0{fill:#A394F8;}
	.st1{fill-rule:evenodd;clip-rule:evenodd;fill:#FFFFFF;}
</style>
<rect id="矩形_21_拷贝_2" class="st0" width="28" height="28"/>
<path id="形状_32_拷贝" class="st1" d="M19.5,23H8.5C7.1,23,6,21.9,6,20.6V9.4c0-0.8,0.5-1.6,1.2-1.9c0.3-0.2,0.7-0.3,1.1-0.3h1
	c0.3,0,0.5,0.2,0.6,0.5c0,0,0,0,0,0c0.1,0.3,0,0.6-0.2,0.8h-1C8.4,8.5,8.2,8.6,8,8.7c-0.4,0.2-0.6,0.6-0.6,1v10.6
	c0,0.8,0.6,1.4,1.3,1.4h10.5c0.8,0,1.4-0.6,1.4-1.4V9.7c0-0.4-0.2-0.8-0.6-1c-0.2-0.1-0.4-0.2-0.6-0.2h-0.9
	c-0.2-0.2-0.3-0.5-0.2-0.8c0-0.3,0.2-0.5,0.5-0.5h1c0.4,0,0.8,0.1,1.1,0.3c0.5,0.2,0.8,0.6,1,1C21.9,8.7,22,9,22,9.3v11.3
	C22,21.9,20.9,23,19.5,23C19.5,23,19.5,23,19.5,23z M10.1,14.3H18c0.4,0.1,0.6,0.4,0.5,0.8c0,0.3-0.3,0.5-0.5,0.5h-7.9
	c-0.4-0.1-0.6-0.4-0.5-0.8C9.6,14.6,9.8,14.4,10.1,14.3z M14.9,19.2l0.8,0.7l2.7-2.5c0.1-0.2,0.4-0.2,0.6-0.1c0,0,0.1,0.1,0.1,0.1
	c0.2,0.2,0.5,0.5,0.3,0.7L16,21.2c-0.2,0.2-0.5,0.2-0.7,0c0,0,0,0,0,0l-1.2-1c-0.6-0.6-0.2-0.8,0-1C14.4,19,14.7,19,14.9,19.2
	L14.9,19.2z M9.5,17.9c0-0.3,0.2-0.6,0.6-0.6h4.8c0.4,0.1,0.6,0.4,0.5,0.8c0,0.3-0.3,0.5-0.5,0.5h-4.8C9.7,18.5,9.5,18.2,9.5,17.9z
	 M18.5,12c0,0.3-0.2,0.6-0.6,0.6h-7.9c-0.4-0.1-0.6-0.4-0.5-0.8c0-0.3,0.3-0.5,0.5-0.5H18C18.3,11.4,18.5,11.6,18.5,12L18.5,12z
	 M16.1,7.1h-1.2v0.8h0.8c0.3,0,0.5,0.3,0.6,0.6C16.2,8.8,16,9,15.7,9c0,0,0,0,0,0h-3.3c-0.3,0-0.5-0.3-0.6-0.6
	c0-0.3,0.2-0.6,0.5-0.6c0,0,0,0,0,0h0.8V7.1h-1.2c-0.3,0-0.5-0.3-0.5-0.6c0-0.3,0.2-0.6,0.5-0.6c0,0,0,0,0,0h4.1
	c0.3,0,0.5,0.3,0.6,0.6C16.6,6.9,16.4,7.1,16.1,7.1C16.1,7.1,16.1,7.1,16.1,7.1z"/>
</svg>
