<?xml version="1.0" encoding="utf-8"?>
<!-- Generator: Adobe Illustrator 23.0.4, SVG Export Plug-In . SVG Version: 6.00 Build 0)  -->
<svg version="1.1" id="图层_1" xmlns="http://www.w3.org/2000/svg" xmlns:xlink="http://www.w3.org/1999/xlink" x="0px" y="0px"
	 viewBox="0 0 16 16" style="enable-background:new 0 0 16 16;" xml:space="preserve">
<style type="text/css">
	.st0{fill-rule:evenodd;clip-rule:evenodd;fill:#0096DB;}
</style>
<path id="形状_21" class="st0" d="M3.2,14.4h1.6V16H3.2V14.4z M0,3.2h1.6v1.6H0V3.2z M0,6.4h1.6V8H0V6.4z M3.2,0H0v1.6h3.2V0z
	 M11.2,0h1.6v1.6h-1.6V0z M8,0h1.6v1.6H8V0z M0,14.4V16h1.6v-3.2H0C0,12.8,0,14.4,0,14.4z M4.8,0h1.6v1.6H4.8V0z M0,9.6h1.6v1.6H0
	V9.6z M14.4,8H16v1.6h-1.6V8z M14.4,11.2H16v1.6h-1.6V11.2z M14.4,0v3.2H16V0H14.4z M14.4,4.8H16v1.6h-1.6V4.8z M6.4,14.4H8V16H6.4
	C6.4,16,6.4,14.4,6.4,14.4z M12.8,14.4V16H16v-1.6C16,14.4,12.8,14.4,12.8,14.4z M9.6,14.4h1.6V16H9.6C9.6,16,9.6,14.4,9.6,14.4z
	 M12.8,8.8V7.2h-4v-4H7.2v4h-4v1.6h4v4h1.6v-4C8.8,8.8,12.8,8.8,12.8,8.8z"/>
</svg>
