<?xml version="1.0" encoding="utf-8"?>
<!-- Generator: Adobe Illustrator 23.0.4, SVG Export Plug-In . SVG Version: 6.00 Build 0)  -->
<svg version="1.1" id="图层_1" xmlns="http://www.w3.org/2000/svg" xmlns:xlink="http://www.w3.org/1999/xlink" x="0px" y="0px"
	 viewBox="0 0 17 17" style="enable-background:new 0 0 17 17;" xml:space="preserve">
<style type="text/css">
	.st0{fill:#51C188;}
	.st1{fill-rule:evenodd;clip-rule:evenodd;fill:#FFFFFF;}
</style>
<circle id="椭圆_1_拷贝_2" class="st0" cx="8.5" cy="8.5" r="8.5"/>
<path id="圆角矩形_1237_拷贝_2" class="st1" d="M12.7,6.8L8,12c-0.2,0.2-0.6,0.3-0.9,0.2h0c-0.1,0-0.1-0.1-0.2-0.1
	c0,0-0.1,0-0.1-0.1L4.2,9.9C3.8,9.6,3.8,9.1,4.1,8.7l0.3-0.3C4.6,8,5.2,7.9,5.6,8.2c0,0,0,0,0,0l1.7,1.4l3.9-4.3
	c0.3-0.3,0.9-0.4,1.2,0c0,0,0,0,0,0l0.3,0.3C13,5.9,13,6.4,12.7,6.8z"/>
</svg>
