<?xml version="1.0" encoding="utf-8"?>
<!-- Generator: Adobe Illustrator 23.0.4, SVG Export Plug-In . SVG Version: 6.00 Build 0)  -->
<svg version="1.1" id="图层_1" xmlns="http://www.w3.org/2000/svg" xmlns:xlink="http://www.w3.org/1999/xlink" x="0px" y="0px"
	 viewBox="0 0 18 18" style="enable-background:new 0 0 18 18;" xml:space="preserve">
<style type="text/css">
	.st0{fill-rule:evenodd;clip-rule:evenodd;fill:#989898;}
</style>
<path id="形状_43" class="st0" d="M9,0c5,0,9,4,9,9s-4,9-9,9s-9-4-9-9S4,0,9,0z M11.1,9.6c0.6-0.4,1.1-0.9,1.5-1.5
	C12.9,7.7,13,7.3,13,6.8c0-0.8-0.3-1.5-0.9-2C11.4,4.3,10.4,4,9.5,4C8.5,4,7.6,4.3,6.9,4.8c-0.3,0.3-0.6,0.6-0.8,1
	c-0.2,0.4,0,0.9,0.3,1.1C6.5,7,6.6,7,6.7,7l0.1,0c0.3,0,0.7-0.2,0.8-0.5C7.8,6.3,8,6,8.3,5.9c0.4-0.3,0.8-0.4,1.3-0.4
	c0.5,0,0.9,0.1,1.3,0.4c0.3,0.2,0.5,0.6,0.5,0.9c0,0.3-0.1,0.5-0.3,0.7c-0.3,0.3-0.7,0.6-1.1,0.9C9.5,8.7,9.1,9.1,8.8,9.6
	c-0.2,0.3-0.3,0.7-0.3,1.1c0,0.4,0.3,0.7,0.7,0.7c0,0,0.1,0,0.1,0c0.4,0,0.8-0.3,0.9-0.7c0,0,0,0,0,0c0-0.1,0.1-0.2,0.1-0.4
	C10.6,10,10.8,9.8,11.1,9.6L11.1,9.6L11.1,9.6z M9.5,12.1c-0.5,0-1,0.4-1,0.9c0,0.5,0.4,0.9,0.9,1c0,0,0.1,0,0.1,0
	c0.5,0,1-0.4,1-0.9l0,0C10.5,12.5,10,12.1,9.5,12.1L9.5,12.1z"/>
</svg>
