<?xml version="1.0" encoding="utf-8"?>
<!-- Generator: Adobe Illustrator 23.0.4, SVG Export Plug-In . SVG Version: 6.00 Build 0)  -->
<svg version="1.1" id="图层_1" xmlns="http://www.w3.org/2000/svg" xmlns:xlink="http://www.w3.org/1999/xlink" x="0px" y="0px"
	 viewBox="0 0 20 20" style="enable-background:new 0 0 20 20;" xml:space="preserve">
<style type="text/css">
	.st0{fill-rule:evenodd;clip-rule:evenodd;fill:#0096DB;}
	.st1{fill-rule:evenodd;clip-rule:evenodd;fill:#FFFFFF;}
</style>
<path id="形状_20" class="st0" d="M0,10c0,5.5,4.5,10,10,10s10-4.5,10-10S15.5,0,10,0S0,4.5,0,10L0,10z M0,10l15,0.9H5
	c-0.2,0-0.4-0.2-0.5-0.4c0,0,0,0,0-0.1V9.5c0-0.2,0.2-0.4,0.4-0.5c0,0,0,0,0.1,0h10c0.2,0,0.4,0.2,0.5,0.4c0,0,0,0,0,0.1v0.9
	c0,0.2-0.2,0.4-0.4,0.5c0,0,0,0-0.1,0l0,0L0,10z M9.1,15V5c0-0.2,0.2-0.4,0.4-0.5c0,0,0,0,0.1,0h0.9c0.2,0,0.4,0.2,0.5,0.4
	c0,0,0,0,0,0.1v10c0,0.2-0.2,0.4-0.4,0.5c0,0,0,0-0.1,0H9.5C9.3,15.5,9.1,15.3,9.1,15C9.1,15,9.1,15,9.1,15L9.1,15z"/>
<path id="形状_20_拷贝" class="st1" d="M15,10.9H5c-0.2,0-0.4-0.2-0.5-0.4c0,0,0,0,0-0.1V9.5c0-0.2,0.2-0.4,0.4-0.5
	c0,0,0,0,0.1,0h10c0.2,0,0.4,0.2,0.5,0.4c0,0,0,0,0,0.1v0.9C15.5,10.7,15.3,10.9,15,10.9C15,10.9,15,10.9,15,10.9L15,10.9L15,10.9z"
	/>
</svg>
