<?xml version="1.0" encoding="utf-8"?>
<!-- Generator: Adobe Illustrator 23.0.4, SVG Export Plug-In . SVG Version: 6.00 Build 0)  -->
<svg version="1.1" id="图层_1" xmlns="http://www.w3.org/2000/svg" xmlns:xlink="http://www.w3.org/1999/xlink" x="0px" y="0px"
	 viewBox="0 0 42 42" style="enable-background:new 0 0 42 42;" xml:space="preserve">
<style type="text/css">
	.st0{fill:#F4F7FE;}
	.st1{fill-rule:evenodd;clip-rule:evenodd;fill:#86A2E0;}
</style>
<circle id="椭圆_4_拷贝" class="st0" cx="21" cy="21" r="21"/>
<path id="形状_13_拷贝" class="st1" d="M29.5,34H12.5c-1.4,0-2.5-1.1-2.5-2.5V14.8c0-1.4,1.1-2.5,2.5-2.5c0.5,0,0.8,0.4,0.8,0.8
	S13,14,12.5,14c-0.5,0-0.8,0.4-0.8,0.8v16.7c0,0.5,0.4,0.8,0.8,0.8h16.9c0.5,0,0.8-0.4,0.8-0.8V14.8c0-0.5-0.4-0.8-0.8-0.8
	c-0.5,0-0.8-0.4-0.8-0.8s0.4-0.8,0.8-0.8l0,0c1.4,0,2.5,1.1,2.5,2.5v16.7C32,32.9,30.9,34,29.5,34z M15.1,29v-8.3h3.4v-3.3h5.1v5
	h3.4V29H15.1z M23.5,27.3h1.7V24h-1.7V27.3z M18.5,22.3h-1.7v5h1.7L18.5,22.3L18.5,22.3z M21.8,19h-1.7v8.3h1.7
	C21.8,27.3,21.8,19,21.8,19z M26.1,14H15.9c-0.5,0-0.8-0.4-0.8-0.8s0.4-0.8,0.8-0.8l0,0h0.9c0.5-2.3,2.8-3.7,5.1-3.2
	c1.6,0.4,2.9,1.6,3.2,3.2h0.9c0.5,0,0.8,0.4,0.8,0.8C26.9,13.6,26.5,14,26.1,14z M21,10.7c-1.1,0-2,0.7-2.4,1.7h4.7
	C23,11.3,22.1,10.7,21,10.7z"/>
</svg>
