<?xml version="1.0" encoding="utf-8"?>
<!-- Generator: Adobe Illustrator 23.0.4, SVG Export Plug-In . SVG Version: 6.00 Build 0)  -->
<svg version="1.1" id="图层_1" xmlns="http://www.w3.org/2000/svg" xmlns:xlink="http://www.w3.org/1999/xlink" x="0px" y="0px"
	 viewBox="0 0 28 28" style="enable-background:new 0 0 28 28;" xml:space="preserve">
<style type="text/css">
	.st0{fill:#6CBC7C;}
	.st1{fill-rule:evenodd;clip-rule:evenodd;fill:#FFFFFF;}
</style>
<rect id="矩形_21_拷贝" class="st0" width="28" height="28"/>
<path id="形状_40_拷贝" class="st1" d="M20.3,20.6c-1.5,0-2.8-1.1-2.8-2.7c0-1.5,1.1-2.8,2.7-2.8c1.5,0,2.8,1.1,2.8,2.7
	c0,0,0,0,0,0.1C23,19.4,21.8,20.6,20.3,20.6C20.3,20.6,20.3,20.6,20.3,20.6z M20.3,16.6c-0.7,0-1.3,0.5-1.3,1.2
	c0,0.7,0.5,1.3,1.2,1.3c0.7,0,1.3-0.5,1.3-1.2c0,0,0,0,0,0C21.6,17.2,21,16.7,20.3,16.6L20.3,16.6z M18,11.3l0.9-1.1
	c1.1,1,1.8,2.3,2.1,3.7l-1.4,0.3C19.4,13.1,18.9,12,18,11.3L18,11.3z M15.8,11.8h-2.6c-0.8,0-1.5-0.7-1.5-1.5V7.6
	c0-0.8,0.7-1.5,1.5-1.5h2.6c0.8,0,1.5,0.7,1.5,1.5v2.7C17.3,11.1,16.6,11.7,15.8,11.8L15.8,11.8z M15.9,7.6
	C15.9,7.5,15.9,7.5,15.9,7.6C15.8,7.5,15.8,7.5,15.9,7.6l-2.7-0.1c0,0-0.1,0-0.1,0.1c0,0,0,0,0,0v2.7c0,0,0,0.1,0.1,0.1c0,0,0,0,0,0
	h2.6c0,0,0.1,0,0.1-0.1c0,0,0,0,0,0V7.6L15.9,7.6z M6.6,20.4L6,19.3l2.2-4l1.2,0l2.1,4l-0.6,1.1H6.6z M8.8,17.2l-1,1.7h1.9L8.8,17.2
	z M8,14.2c0.2-1.5,0.9-2.9,2-3.9l1,1.1c-0.9,0.8-1.4,1.9-1.6,3.1L8,14.2z M14.5,20.6c0.9,0,1.9-0.3,2.7-0.8l0.7,1.2
	c-1.9,1.2-4.2,1.3-6.2,0.4l0.6-1.3C13.1,20.4,13.8,20.6,14.5,20.6L14.5,20.6z"/>
</svg>
