<?xml version="1.0" encoding="utf-8"?>
<!-- Generator: Adobe Illustrator 23.0.4, SVG Export Plug-In . SVG Version: 6.00 Build 0)  -->
<svg version="1.1" id="图层_1" xmlns="http://www.w3.org/2000/svg" xmlns:xlink="http://www.w3.org/1999/xlink" x="0px" y="0px"
	 viewBox="0 0 42 42" style="enable-background:new 0 0 42 42;" xml:space="preserve">
<style type="text/css">
	.st0{fill:#D4F3EB;}
	.st1{fill-rule:evenodd;clip-rule:evenodd;fill:#40CDAD;}
</style>
<circle id="椭圆_4" class="st0" cx="21" cy="21" r="21"/>
<path id="形状_26_拷贝" class="st1" d="M30.9,19.6v-0.2h-0.8v-1.6H11.9v10.1c0,0.2,0.1,0.4,0.2,0.5H18v0.2h0.8v1.5h-6.1
	c-0.3,0-0.7-0.1-1-0.2c-1.2-0.1-2.1-1-2.1-2.2V13.7c0-1.2,1.1-2.2,2.3-2.2h17.6c0.3,0,0.7,0.1,1,0.2c1.2,0.1,2.1,1,2.1,2.2v5.7
	L30.9,19.6L30.9,19.6z M12.6,13.2c-0.4,0-0.7,0.3-0.7,0.7c0,0,0,0,0,0v2.1h18.2v-2.3c0-0.2-0.1-0.4-0.2-0.5H12.6L12.6,13.2z
	 M24.8,19.7c0.6,0,1.1,0.1,1.7,0.3c2.4,0.4,4.3,2.4,4.3,4.9c0,1-0.3,1.9-0.9,2.7l2.1,2c0.1,0.1,0.1,0.3,0,0.4c0,0,0,0,0,0l-0.7,0.7
	c-0.1,0.1-0.3,0.1-0.4,0l-0.3-0.3l-0.1,0.1c-0.1,0.1-0.3,0.1-0.4,0L28.5,29c-1.4,0.9-3.1,1.1-4.6,0.6c-2.4-0.4-4.3-2.4-4.3-4.9
	C19.6,21.9,22,19.7,24.8,19.7L24.8,19.7z M24.8,28.2c1.9,0,3.6-1.5,3.6-3.5c0-1.4-0.9-2.7-2.2-3.2c-0.2,0-0.4-0.1-0.6-0.1
	c-2,0-3.6,1.5-3.6,3.5c0,1.4,0.9,2.7,2.3,3.2C24.4,28.1,24.6,28.1,24.8,28.2L24.8,28.2z"/>
</svg>
