<?xml version="1.0" encoding="utf-8"?>
<!-- Generator: Adobe Illustrator 23.0.4, SVG Export Plug-In . SVG Version: 6.00 Build 0)  -->
<svg version="1.1" id="图层_1" xmlns="http://www.w3.org/2000/svg" xmlns:xlink="http://www.w3.org/1999/xlink" x="0px" y="0px"
	 viewBox="0 0 28 28" style="enable-background:new 0 0 28 28;" xml:space="preserve">
<style type="text/css">
	.st0{fill:#0096DB;}
	.st1{fill-rule:evenodd;clip-rule:evenodd;fill:#F6FAFF;}
</style>
<rect id="矩形_21" class="st0" width="28" height="28"/>
<path id="形状_47" class="st1" d="M20.9,23H8.1C7.5,23,7,22.5,7,21.9V7.7c0-0.6,0.5-1.1,1.1-1.1h2.4V6.1C10.5,5.5,11,5,11.5,5h5.9
	c0.6,0,1.1,0.5,1.1,1.1v0.6h2.4c0.6,0,1.1,0.5,1.1,1.1v14.2C22,22.5,21.5,23,20.9,23z M17.1,6.7V6.4h-5.2v1.8h5.2L17.1,6.7L17.1,6.7
	z M20.6,8.1h-2.1v0.5c0,0.6-0.5,1.1-1.1,1.1h-5.9c-0.6,0-1.1-0.5-1.1-1.1V8.1H8.4v13.5h12.2V8.1z M10.5,11.8l0.1,0.1l0.9-0.9
	c0.3-0.3,0.7-0.3,1,0s0.3,0.7,0,1l0,0l-1.4,1.4c-0.3,0.3-0.7,0.3-1,0l-0.6-0.6c-0.3-0.3-0.3-0.7,0-1S10.2,11.6,10.5,11.8z
	 M10.7,14.7c0.7,0,1.2,0.5,1.2,1.2s-0.5,1.2-1.2,1.2c-0.7,0-1.2-0.5-1.2-1.2l0,0C9.5,15.3,10,14.7,10.7,14.7L10.7,14.7z M10.7,16.1
	c0.1,0,0.2-0.1,0.2-0.2c0-0.1-0.1-0.2-0.2-0.2c-0.1,0-0.2,0.1-0.2,0.2C10.4,16,10.5,16.1,10.7,16.1L10.7,16.1z M10.7,18.2
	c0.7,0,1.2,0.5,1.2,1.2s-0.5,1.2-1.2,1.2c-0.7,0-1.2-0.5-1.2-1.2l0,0C9.5,18.7,10,18.2,10.7,18.2L10.7,18.2z M10.7,19.6
	c0.1,0,0.2-0.1,0.2-0.2c0-0.1-0.1-0.2-0.2-0.2c-0.1,0-0.2,0.1-0.2,0.2l0,0C10.4,19.5,10.5,19.6,10.7,19.6L10.7,19.6z M13.8,11.8h5
	c0.4,0,0.7,0.3,0.7,0.7c0,0.4-0.3,0.7-0.7,0.7h-5c-0.4,0-0.7-0.3-0.7-0.7C13.1,12.1,13.4,11.8,13.8,11.8z M13.8,15.2h2.9
	c0.4,0,0.7,0.3,0.7,0.7s-0.3,0.7-0.7,0.7h-2.9c-0.4,0-0.7-0.3-0.7-0.7S13.4,15.2,13.8,15.2L13.8,15.2z M13.8,18.7h5
	c0.4,0,0.7,0.3,0.7,0.7s-0.3,0.7-0.7,0.7h-5c-0.4,0-0.7-0.3-0.7-0.7S13.4,18.7,13.8,18.7z"/>
</svg>
