<?xml version="1.0" encoding="utf-8"?>
<!-- Generator: Adobe Illustrator 23.0.4, SVG Export Plug-In . SVG Version: 6.00 Build 0)  -->
<svg version="1.1" id="图层_1" xmlns="http://www.w3.org/2000/svg" xmlns:xlink="http://www.w3.org/1999/xlink" x="0px" y="0px"
	 viewBox="0 0 28 28" style="enable-background:new 0 0 28 28;" xml:space="preserve">
<style type="text/css">
	.st0{fill-rule:evenodd;clip-rule:evenodd;fill:#A394F8;}
	.st1{fill-rule:evenodd;clip-rule:evenodd;fill:#FFFFFF;}
</style>
<path id="矩形_21_拷贝" class="st0" d="M0,0.1h28v27H0V0.1z"/>
<path id="形状_14_拷贝" class="st1" d="M20.5,22.2H7.4c-1,0.1-1.9-0.7-2-1.6V9.6c0.1-1,1-1.7,2-1.6C7.7,8,8,8.2,8.1,8.5
	c0,0.3-0.3,0.6-0.7,0.5C7.1,9,6.8,9.3,6.7,9.6v10.9c0,0.3,0.3,0.6,0.7,0.5h13.1c0.3,0,0.6-0.2,0.7-0.5V9.6c0-0.3-0.3-0.6-0.7-0.5
	s-0.6-0.2-0.7-0.5c0-0.3,0.3-0.6,0.7-0.5c1-0.1,1.9,0.7,2,1.6v10.9C22.3,21.6,21.5,22.3,20.5,22.2z M9.4,18.9v-5.5H12v-2.2h3.9v3.3
	h2.6v4.4H9.4z M15.9,17.8h1.3v-2.2h-1.3V17.8z M12,14.5h-1.3v3.3H12L12,14.5L12,14.5z M14.6,12.4h-1.3v5.5h1.3L14.6,12.4L14.6,12.4z
	 M17.9,9.1H10c-0.3,0-0.6-0.2-0.7-0.5C9.4,8.2,9.7,8,10,8h0.7c0.4-1.4,1.8-2.3,3.2-2.2c1.4-0.1,2.8,0.8,3.2,2.2h0.7
	c0.3,0,0.6,0.2,0.7,0.5C18.5,8.9,18.2,9.1,17.9,9.1L17.9,9.1z M13.9,6.9c-0.8,0-1.5,0.4-1.8,1.1h3.7C15.4,7.3,14.7,6.9,13.9,6.9z"/>
</svg>
