<?xml version="1.0" encoding="utf-8"?>
<!-- Generator: Adobe Illustrator 23.0.4, SVG Export Plug-In . SVG Version: 6.00 Build 0)  -->
<svg version="1.1" id="图层_1" xmlns="http://www.w3.org/2000/svg" xmlns:xlink="http://www.w3.org/1999/xlink" x="0px" y="0px"
	 viewBox="0 0 28 28" style="enable-background:new 0 0 28 28;" xml:space="preserve">
<style type="text/css">
	.st0{fill:#5794DD;}
	.st1{fill-rule:evenodd;clip-rule:evenodd;fill:#FFFFFF;}
</style>
<rect id="矩形_21" class="st0" width="28" height="28"/>
<path id="形状_11" class="st1" d="M21.2,7c-0.1,0-0.2,0-0.3,0.1l0,0h0l-7,2.5L7,7.1h0l0,0C6.8,7,6.6,7,6.3,7.1
	C6.1,7.2,6,7.4,6,7.7v10.1c0,0.3,0.2,0.5,0.5,0.6l7.2,2.6c0.2,0.1,0.4,0.1,0.6,0l7.2-2.6c0.3-0.1,0.5-0.3,0.5-0.6V7.7
	C22,7.3,21.6,7,21.2,7L21.2,7z M13,19.2l-6-2V8.8l6,2V19.2z M16.7,12.9c-0.3,0-0.6-0.2-0.7-0.5c-0.1-0.3,0.1-0.6,0.4-0.7l2.7-1.1
	c0.4-0.1,0.8,0,1,0.3c0.2,0.3,0,0.7-0.3,0.8c0,0,0,0-0.1,0l-2.8,1.1C17,12.9,16.9,12.9,16.7,12.9L16.7,12.9L16.7,12.9z M16.7,15.5
	c-0.3,0-0.6-0.2-0.7-0.5c-0.1-0.3,0.1-0.6,0.4-0.7l2.7-1.1c0.4-0.1,0.8,0,1,0.3c0.2,0.3,0,0.7-0.3,0.8c0,0,0,0-0.1,0l-2.8,1.1
	C17,15.5,16.9,15.5,16.7,15.5L16.7,15.5L16.7,15.5z M16.7,18.1c-0.3,0-0.6-0.2-0.7-0.5c-0.1-0.3,0.1-0.6,0.4-0.7l2.8-1.1
	c0.4-0.1,0.8,0,1,0.3c0.2,0.3,0,0.7-0.3,0.8c0,0,0,0-0.1,0l-2.8,1.1C17,18.1,16.9,18.1,16.7,18.1C16.7,18.1,16.7,18.1,16.7,18.1z
	 M21,17.2l-6,2v-8.5l6-2V17.2z M8.4,11.8C8.1,11.6,7.9,11.3,8,11c0,0,0-0.1,0-0.1c0.2-0.3,0.6-0.5,1-0.3l2.7,1.1
	c0.2,0.1,0.4,0.3,0.4,0.5c0,0.2-0.1,0.5-0.3,0.6c-0.2,0.1-0.5,0.2-0.7,0.1L8.4,11.8z M8.4,14.4C8.2,14.3,8,14.1,8,13.8
	c0-0.2,0.1-0.5,0.3-0.6c0.2-0.1,0.5-0.2,0.8-0.1l2.7,1.1c0.3,0.1,0.5,0.5,0.4,0.8c0,0,0,0,0,0.1c-0.2,0.3-0.6,0.5-1,0.3L8.4,14.4z
	 M8.4,17c-0.3-0.1-0.5-0.5-0.4-0.8c0,0,0-0.1,0-0.1c0.2-0.3,0.6-0.5,1-0.3l2.7,1.1c0.3,0.1,0.5,0.5,0.4,0.8c0,0,0,0.1,0,0.1
	c-0.2,0.3-0.6,0.5-1,0.3L8.4,17z"/>
</svg>
