<?xml version="1.0" encoding="utf-8"?>
<!-- Generator: Adobe Illustrator 23.0.4, SVG Export Plug-In . SVG Version: 6.00 Build 0)  -->
<svg version="1.1" id="图层_1" xmlns="http://www.w3.org/2000/svg" xmlns:xlink="http://www.w3.org/1999/xlink" x="0px" y="0px"
	 viewBox="0 0 28 28" style="enable-background:new 0 0 28 28;" xml:space="preserve">
<style type="text/css">
	.st0{fill-rule:evenodd;clip-rule:evenodd;fill:#7C7F84;}
</style>
<path id="形状_18" class="st0" d="M22.3,17.9c-0.9,2.1-2.6,3.8-4.7,4.7c-4.5,1.9-9.7-0.2-11.6-4.8C5,15.6,5,13.2,5.9,11
	c0.9-2.1,2.6-3.8,4.7-4.7c4.5-1.9,9.7,0.2,11.6,4.8C23.2,13.2,23.2,15.7,22.3,17.9z M14.1,7.1c-4,0-7.3,3.2-7.3,7.3s3.2,7.3,7.3,7.3
	s7.3-3.2,7.3-7.3c0,0,0,0,0,0C21.4,10.4,18.1,7.2,14.1,7.1L14.1,7.1z M17.7,15.3l-7.2,0c-0.5,0-0.9-0.4-0.9-0.9
	c0-0.5,0.4-0.9,0.9-0.9l7.2,0c0.5,0,0.9,0.4,0.9,0.9C18.5,14.9,18.2,15.3,17.7,15.3L17.7,15.3z"/>
</svg>
