<?xml version="1.0" encoding="utf-8"?>
<!-- Generator: Adobe Illustrator 23.0.4, SVG Export Plug-In . SVG Version: 6.00 Build 0)  -->
<svg version="1.1" id="图层_1" xmlns="http://www.w3.org/2000/svg" xmlns:xlink="http://www.w3.org/1999/xlink" x="0px" y="0px"
	 viewBox="0 0 23 16" style="enable-background:new 0 0 23 16;" xml:space="preserve">
<style type="text/css">
	.st0{fill-rule:evenodd;clip-rule:evenodd;fill:#0A9ADC;}
</style>
<path id="形状_509" class="st0" d="M22.3,12.6c0,1-0.4,1.2-2.1,1.2c-0.2-2.9-2-5.5-4.8-6.6c1.5-1.8,1.6-4.4,0.1-6.2
	c1.6-0.4,3.2,0.4,3.8,2c0.5,1.5-0.2,3.2-1.7,3.9C20.3,7.4,22.3,9.8,22.3,12.6L22.3,12.6L22.3,12.6z M13.2,7.5
	c2.7,0.5,5.8,2.2,5.8,7.1c0,1.3-1.8,1.3-7.8,1.3c-6,0-7.8,0-7.8-1.3c0-4.9,3.1-6.6,5.8-7.1C7.7,6.7,6.8,4.8,7.3,3
	c0.6-2.2,2.9-3.5,5.1-2.9c1.4,0.4,2.5,1.5,2.9,2.9C15.7,4.8,14.9,6.7,13.2,7.5C13.2,7.5,13.2,7.5,13.2,7.5z M7.2,7.2
	c-2.7,1.1-4.6,3.6-4.8,6.6c-1.7,0-2.1-0.2-2.1-1.2C0.2,9.8,2.2,7.4,4.9,6.8C3.4,6.2,2.7,4.5,3.2,3C3.8,1.4,5.4,0.6,7,1
	C5.6,2.8,5.7,5.4,7.2,7.2L7.2,7.2z"/>
</svg>
