<?xml version="1.0" encoding="utf-8"?>
<!-- Generator: Adobe Illustrator 23.0.4, SVG Export Plug-In . SVG Version: 6.00 Build 0)  -->
<svg version="1.1" id="图层_1" xmlns="http://www.w3.org/2000/svg" xmlns:xlink="http://www.w3.org/1999/xlink" x="0px" y="0px"
	 viewBox="0 0 28 28" style="enable-background:new 0 0 28 28;" xml:space="preserve">
<style type="text/css">
	.st0{fill:#0A9ADC;}
	.st1{fill-rule:evenodd;clip-rule:evenodd;fill:#FFFFFF;}
</style>
<rect id="矩形_21_拷贝_2" class="st0" width="28" height="28"/>
<path id="形状_510" class="st1" d="M16.5,15.3c-1-0.7-2.2-1-3.4-1c-2.8-0.2-5.3,1.9-5.7,4.7h5.7v-2.3c0-0.8,0.7-1.4,1.4-1.3H16.5
	L16.5,15.3z M18.6,15.3h3c0.8,0,1.4,0.6,1.4,1.3v4c0,0.8-0.7,1.4-1.4,1.3h-7.1c-0.8,0-1.4-0.6-1.4-1.3v-0.3h-7C6,20,6,19.7,6,19.3
	c0.1-2.8,2-5.3,4.8-6c-1.2-0.7-1.9-2-1.9-3.4c0.1-2.3,2-4.1,4.3-4c2.3-0.1,4.2,1.7,4.3,4c0,1.4-0.7,2.6-1.9,3.4
	C16.6,13.7,17.7,14.4,18.6,15.3L18.6,15.3L18.6,15.3z M14.5,20.3c0,0.2,0.2,0.3,0.4,0.3h6.4c0.2,0,0.3-0.1,0.4-0.3V17
	c0-0.2-0.2-0.3-0.4-0.3h-6.4c-0.2,0-0.3,0.1-0.4,0.3L14.5,20.3L14.5,20.3z M15.2,17.8c0-0.3,0.2-0.5,0.5-0.5c0,0,0,0,0,0h4.6
	c0.3,0,0.5,0.2,0.5,0.5s-0.2,0.5-0.5,0.5h-4.6c-0.1,0-0.3-0.1-0.4-0.1C15.3,18.1,15.2,18,15.2,17.8L15.2,17.8L15.2,17.8z M15.2,19.5
	c0-0.3,0.2-0.5,0.5-0.5c0,0,0,0,0,0h4.6c0.3,0,0.5,0.2,0.5,0.5S20.6,20,20.4,20h-4.6c-0.1,0-0.3-0.1-0.4-0.1
	C15.3,19.8,15.2,19.6,15.2,19.5L15.2,19.5L15.2,19.5z M13.1,12.7c1.5,0,2.8-1.1,2.8-2.7c0-1.5-1.3-2.7-2.8-2.7
	c-1.5,0-2.8,1.1-2.8,2.7C10.3,11.5,11.6,12.7,13.1,12.7L13.1,12.7z"/>
</svg>
