<?xml version="1.0" encoding="utf-8"?>
<!-- Generator: Adobe Illustrator 23.0.4, SVG Export Plug-In . SVG Version: 6.00 Build 0)  -->
<svg version="1.1" id="图层_1" xmlns="http://www.w3.org/2000/svg" xmlns:xlink="http://www.w3.org/1999/xlink" x="0px" y="0px"
	 viewBox="0 0 16 18" style="enable-background:new 0 0 16 18;" xml:space="preserve">
<style type="text/css">
	.st0{fill-rule:evenodd;clip-rule:evenodd;fill:#0A9ADC;}
</style>
<path id="形状_514_拷贝_2" class="st0" d="M7.9,17.9h0.1c1.1,0.1,2.1-0.7,2.4-1.8H5.5C5.8,17.2,6.8,18,7.9,17.9L7.9,17.9z
	 M14,11.2V7.3c-0.1-2.3-1.8-4.2-4-4.5V2.7c0-0.7-0.4-1.3-1-1.6c-0.6-0.3-1.4-0.3-2,0C6.4,1.4,6,2.1,6,2.7v0.1C3.8,3.2,2.1,5.1,2,7.3
	v3.8c-1.2,0.8-1.9,2.1-2,3.5h16C15.9,13.2,15.2,12,14,11.2L14,11.2z"/>
</svg>
