<?xml version="1.0" encoding="utf-8"?>
<!-- Generator: Adobe Illustrator 23.0.4, SVG Export Plug-In . SVG Version: 6.00 Build 0)  -->
<svg version="1.1" id="图层_1" xmlns="http://www.w3.org/2000/svg" xmlns:xlink="http://www.w3.org/1999/xlink" x="0px" y="0px"
	 viewBox="0 0 28 28" style="enable-background:new 0 0 28 28;" xml:space="preserve">
<style type="text/css">
	.st0{fill:#5794DD;}
	.st1{fill-rule:evenodd;clip-rule:evenodd;fill:#FFFFFF;}
</style>
<rect id="矩形_21" class="st0" width="28" height="28"/>
<path id="形状_30" class="st1" d="M21,13c-0.5,0-1-0.4-1-0.9c0,0,0-0.1,0-0.1v-0.6l-4.3,4.3c-0.4,0.4-1,0.4-1.4,0c0,0,0,0,0,0
	L13,14.4l-2.3,2.3C10.5,16.9,10.3,17,10,17c-0.5,0-1-0.4-1-0.9c0,0,0-0.1,0-0.1c0-0.3,0.1-0.5,0.3-0.7l3-3c0.4-0.4,1-0.4,1.4,0
	c0,0,0,0,0,0l1.3,1.3l3.6-3.6H18c-0.5,0-1-0.4-1-0.9c0,0,0-0.1,0-0.1c0-0.5,0.4-1,0.9-1c0,0,0.1,0,0.1,0h3c0.5,0,1,0.4,1,0.9
	c0,0,0,0.1,0,0.1v3c0,0.5-0.4,1-0.9,1C21.1,13,21,13,21,13L21,13L21,13z M21,18c0.6,0,1,0.4,1,1s-0.4,1-1,1H7c-0.5,0-1-0.4-1-0.9
	c0,0,0-0.1,0-0.1V9c0-0.5,0.4-1,0.9-1C6.9,8,7,8,7,8c0.5,0,1,0.4,1,0.9C8,8.9,8,9,8,9v9L21,18L21,18z"/>
</svg>
