<?xml version="1.0" encoding="utf-8"?>
<!-- Generator: Adobe Illustrator 23.0.4, SVG Export Plug-In . SVG Version: 6.00 Build 0)  -->
<svg version="1.1" id="图层_1" xmlns="http://www.w3.org/2000/svg" xmlns:xlink="http://www.w3.org/1999/xlink" x="0px" y="0px"
	 viewBox="0 0 42 42" style="enable-background:new 0 0 42 42;" xml:space="preserve">
<style type="text/css">
	.st0{fill:#F4F7FE;}
	.st1{fill-rule:evenodd;clip-rule:evenodd;fill:#86A2E0;}
</style>
<circle id="椭圆_4" class="st0" cx="21" cy="21" r="21"/>
<path id="形状_27_拷贝" class="st1" d="M30.7,32.2h-8.8c-0.8,0-1.6-0.6-1.6-1.5c0,0,0,0,0,0v-4.9c0-0.8,0.7-1.5,1.6-1.5
	c0,0,0,0,0,0h8.8c0.8,0,1.5,0.7,1.6,1.5v4.9C32.2,31.5,31.5,32.2,30.7,32.2C30.7,32.2,30.7,32.2,30.7,32.2z M26.3,30.6
	c0.3,0,0.5-0.2,0.5-0.5h0v-0.2c0-0.3-0.2-0.5-0.5-0.5h-3c-0.3,0-0.5,0.2-0.5,0.5v0.2c0,0.3,0.2,0.5,0.5,0.5H26.3L26.3,30.6z
	 M23.4,26.5c-0.3,0-0.5,0.2-0.5,0.5v0.2c0,0.3,0.2,0.5,0.5,0.5h5.4c0.3,0,0.5-0.2,0.5-0.5V27c0-0.3-0.2-0.5-0.5-0.5H23.4z
	 M23.6,21.6c-0.2,0-0.4,0-0.6-0.1c0,0-0.1,0-0.1,0.1c-0.2,0.1-0.5,0-0.7-0.1c-0.4-0.2-0.6-0.7-0.4-1.1c0,0,0,0,0,0
	c1.5-2.3,1.8-4.2,1-6.2c-0.5-1-1.4-1.7-2.5-1.8c-0.2,0-0.4,0-0.6,0c-1,0.1-1.9,0.5-2.6,1.2c-2,2.2-0.5,6.4,0.1,7.2l0.2,0.2
	c1.2,1.5,2.2,3,1.8,4.2C19,25.6,18.4,26,17.8,26c-1.6,0.4-3.2,1-4.7,1.8c1.8,1.1,3.7,2.1,5.7,3c0.2,0.1,0.4,0.3,0.4,0.5
	c0.1,0.2,0.1,0.4,0,0.6c-0.1,0.3-0.4,0.5-0.7,0.5c-0.1,0-0.3,0-0.4-0.1c-0.1,0.1-0.2,0.1-0.3,0.1c-0.1,0-0.3,0-0.4-0.1
	c-7-3.4-7-4-7.1-4.5c-0.1-1.7,5.4-3.4,6.6-3.6c-0.4-0.9-0.9-1.7-1.5-2.4l-0.2-0.2c-0.9-1.2-2.7-6.5,0-9.4c1.2-1.3,3-2,4.8-1.8
	c0.5,0,1.1,0,1.6,0.1c1.7,0.2,3.2,1.4,3.8,3c1.2,3.2,0,5.8-1.2,7.6C24,21.3,23.8,21.5,23.6,21.6L23.6,21.6z"/>
</svg>
