<?xml version="1.0" encoding="utf-8"?>
<!-- Generator: Adobe Illustrator 23.0.4, SVG Export Plug-In . SVG Version: 6.00 Build 0)  -->
<svg version="1.1" id="图层_1" xmlns="http://www.w3.org/2000/svg" xmlns:xlink="http://www.w3.org/1999/xlink" x="0px" y="0px"
	 viewBox="0 0 28 28" style="enable-background:new 0 0 28 28;" xml:space="preserve">
<style type="text/css">
	.st0{fill:#0A9ADC;}
	.st1{fill-rule:evenodd;clip-rule:evenodd;fill:#FFFFFF;}
</style>
<rect id="矩形_24" class="st0" width="28" height="28"/>
<path id="形状_510" class="st1" d="M19.2,19.2v2c0,1-0.8,1.8-1.8,1.7H7.8c-1,0-1.8-0.8-1.8-1.8c0,0,0,0,0,0v-9.7
	c0-1,0.8-1.8,1.8-1.8c0,0,0,0,0,0h2v-2c0-1,0.8-1.8,1.8-1.8h9.7c1,0,1.8,0.8,1.8,1.8c0,0,0,0,0,0v9.7c0,1-0.8,1.8-1.8,1.7
	c0,0,0,0,0,0L19.2,19.2L19.2,19.2z M19.2,17.3h1.9V7.9h-9.4v1.9h5.8c1,0,1.8,0.8,1.8,1.8v0L19.2,17.3L19.2,17.3z M7.9,21.1h9.4v-9.4
	H7.9V21.1z M11.7,19.2c-0.3,0-0.5-0.1-0.7-0.3l-1.9-1.9c-0.3-0.4-0.3-1,0.1-1.3c0.4-0.3,0.9-0.3,1.2,0l1.2,1.2l3.1-3.1
	c0.4-0.3,1-0.3,1.3,0.1c0.3,0.4,0.3,0.9,0,1.2l-3.8,3.8C12.1,19.1,11.9,19.2,11.7,19.2L11.7,19.2L11.7,19.2z"/>
</svg>
