<?xml version="1.0" encoding="utf-8"?>
<!-- Generator: Adobe Illustrator 23.0.4, SVG Export Plug-In . SVG Version: 6.00 Build 0)  -->
<svg version="1.1" id="图层_1" xmlns="http://www.w3.org/2000/svg" xmlns:xlink="http://www.w3.org/1999/xlink" x="0px" y="0px"
	 viewBox="0 0 42 42" style="enable-background:new 0 0 42 42;" xml:space="preserve">
<style type="text/css">
	.st0{fill:#D4F3EB;}
	.st1{fill-rule:evenodd;clip-rule:evenodd;fill:#40CDAD;}
</style>
<circle id="椭圆_4" class="st0" cx="21" cy="21" r="21"/>
<path id="形状_26_拷贝" class="st1" d="M24.8,19.7c2.8-0.1,5.1,2.2,5.2,5c0,1-0.3,1.9-0.9,2.7l2.1,2c0.1,0.1,0.1,0.3,0,0.4
	c0,0,0,0,0,0l-0.7,0.7c-0.1,0.1-0.3,0.1-0.4,0l-2.1-2c-0.9,0.7-2.1,1.1-3.3,1.1c-2.8,0.1-5.1-2.2-5.2-5C19.6,21.9,22,19.7,24.8,19.7
	L24.8,19.7L24.8,19.7z M29.4,11.5c1.2,0,2.3,1,2.3,2.2v5.7h-1.6v-1.8h-19v10.1c0,0.4,0.3,0.7,0.7,0.7c0,0,0,0,0,0H18v1.5h-6.1
	c-1.2,0-2.3-1-2.3-2.2V13.7c0-1.2,1.1-2.2,2.3-2.2C11.8,11.5,29.4,11.5,29.4,11.5z M24.8,21.3c-1.9,0.1-3.4,1.7-3.3,3.6
	c0.1,1.9,1.7,3.4,3.6,3.3c1.8-0.1,3.3-1.6,3.3-3.5C28.4,22.7,26.7,21.2,24.8,21.3L24.8,21.3L24.8,21.3z M29.4,13H11.8
	c-0.4,0-0.7,0.3-0.7,0.7c0,0,0,0,0,0v2.3h19v-2.3C30.1,13.3,29.8,13,29.4,13C29.4,13,29.4,13,29.4,13z"/>
</svg>
