<?xml version="1.0" encoding="utf-8"?>
<!-- Generator: Adobe Illustrator 23.0.4, SVG Export Plug-In . SVG Version: 6.00 Build 0)  -->
<svg version="1.1" id="图层_1" xmlns="http://www.w3.org/2000/svg" xmlns:xlink="http://www.w3.org/1999/xlink" x="0px" y="0px"
	 viewBox="0 0 28 28" style="enable-background:new 0 0 28 28;" xml:space="preserve">
<style type="text/css">
	.st0{fill-rule:evenodd;clip-rule:evenodd;fill:#7C7F84;}
</style>
<path id="形状_17_拷贝" class="st0" d="M21.1,13.2c-0.2,0-0.4,0.1-0.5,0.2c-0.1,0.1-0.2,0.3-0.2,0.5v6.3c0,1-0.8,1.7-1.7,1.7
	H8.7c-1,0-1.7-0.8-1.7-1.7v-10c0-1,0.8-1.7,1.7-1.7h6.2c0.3,0,0.5-0.1,0.6-0.4c0.1-0.2,0.1-0.5,0-0.7C15.4,7.1,15.2,7,14.9,7H8.7
	c-1.7,0-3.2,1.4-3.2,3.2v10c0,1.7,1.4,3.2,3.2,3.2h9.9c1.7,0,3.2-1.4,3.1-3.2v-6.3C21.8,13.5,21.5,13.2,21.1,13.2
	C21.1,13.2,21.1,13.2,21.1,13.2C21.1,13.2,21.1,13.2,21.1,13.2z M22.8,7.7L21.2,6c-0.6-0.6-1.6-0.6-2.2,0c0,0,0,0,0,0l-7.7,7.7l0,0
	l0,0c-0.2,0.2-0.3,0.5-0.4,0.7l-0.6,2.7c-0.1,0.3,0,0.7,0.2,1c0.2,0.3,0.5,0.4,0.9,0.4c0.1,0,0.1,0,0.2,0l2.7-0.5
	c0.3-0.1,0.6-0.2,0.8-0.4l0,0l7.7-7.7C23.4,9.2,23.4,8.3,22.8,7.7L22.8,7.7L22.8,7.7z M12.1,15.6l1.1,1.1L11.8,17L12.1,15.6z
	 M21.8,8.8L14.6,16l-1.8-1.8L20,7c0,0,0.1,0,0.1,0l1.6,1.6C21.8,8.7,21.8,8.7,21.8,8.8C21.8,8.8,21.8,8.8,21.8,8.8L21.8,8.8
	L21.8,8.8z"/>
</svg>
