<?xml version="1.0" encoding="utf-8"?>
<!-- Generator: Adobe Illustrator 23.0.4, SVG Export Plug-In . SVG Version: 6.00 Build 0)  -->
<svg version="1.1" id="图层_1" xmlns="http://www.w3.org/2000/svg" xmlns:xlink="http://www.w3.org/1999/xlink" x="0px" y="0px"
	 viewBox="0 0 28 28" style="enable-background:new 0 0 28 28;" xml:space="preserve">
<style type="text/css">
	.st0{fill:#F6BA48;}
	.st1{fill-rule:evenodd;clip-rule:evenodd;fill:#FFFFFF;}
</style>
<rect id="矩形_21" class="st0" width="28" height="28"/>
<path id="形状_31_拷贝" class="st1" d="M18.4,6h-1.3v2.3h-2.6v1.1h2.6v2.3h1.3V9.4H21V8.3h-2.6V6z M21,10.6l-1.3,0v10.3l0,0H9.3
	l0,0V7.1l0,0h6.5V6H9.3C8.6,6,8,6.5,8,7.1v13.7C8,21.5,8.6,22,9.3,22h10.4c0.7,0,1.3-0.5,1.3-1.1V10.6h-1.3H21z M10.6,14h6.5v1.1
	h-6.5V14z M10.6,17.4h7.8v1.1h-7.8V17.4L10.6,17.4z"/>
<polyline class="st1" points="10.7,11.6 10.7,10.5 15.8,10.5 15.8,11.6 "/>
</svg>
