<?xml version="1.0" encoding="utf-8"?>
<!-- Generator: Adobe Illustrator 23.0.4, SVG Export Plug-In . SVG Version: 6.00 Build 0)  -->
<svg version="1.1" id="图层_1" xmlns="http://www.w3.org/2000/svg" xmlns:xlink="http://www.w3.org/1999/xlink" x="0px" y="0px"
	 viewBox="0 0 28 28" style="enable-background:new 0 0 28 28;" xml:space="preserve">
<style type="text/css">
	.st0{fill:#A394F8;}
	.st1{fill-rule:evenodd;clip-rule:evenodd;fill:#FFFFFF;}
</style>
<rect id="矩形_21_拷贝_4" class="st0" width="28" height="28"/>
<path id="形状_680" class="st1" d="M23,19.4L15.1,22c-0.2,0.1-0.5,0.1-0.7,0.1c-0.3,0-0.5,0-0.8-0.1L6,19.4c-0.6-0.2-1-0.8-1-1.4
	V7.6c0-0.5,0.2-0.9,0.6-1.2C6,6.2,6.4,6.1,6.9,6.2l7.1,2h0.7l7.4-2c0.4-0.1,0.9,0,1.3,0.2C23.8,6.7,24,7.2,24,7.6v10.4
	C24,18.7,23.6,19.3,23,19.4z M6.5,7.6v10.4l7.1,2.4V9.6L6.5,7.6z M22.5,7.6l-7.4,2v10.9l7.4-2.4V7.6z M16.3,13.9
	c-0.1-0.1-0.1-0.3,0-0.4c0-0.1,0.1-0.1,0.2-0.1l1.1-0.2c0.1,0,0.2-0.1,0.2-0.2l0.5-1c0.1-0.2,0.3-0.2,0.5-0.1c0.1,0,0.1,0.1,0.1,0.1
	l0.5,1c0.1,0.1,0.1,0.2,0.2,0.2l1.1,0.2c0.2,0,0.3,0.2,0.3,0.3c0,0.1,0,0.1-0.1,0.2l-0.8,0.8C20.1,14.8,20,14.9,20,15l0.2,1.1
	c0,0.2-0.1,0.3-0.3,0.4c-0.1,0-0.1,0-0.2,0l-1-0.5c-0.1-0.1-0.2-0.1-0.3,0l-1,0.5c-0.2,0.1-0.3,0-0.4-0.1c0-0.1,0-0.1,0-0.2l0.2-1.1
	c0-0.1,0-0.2-0.1-0.3L16.3,13.9z M12.6,16.7c-0.1,0.3-0.4,0.5-0.7,0.5c-0.1,0-0.1,0-0.2,0l-3.5-1.1c-0.4-0.1-0.6-0.5-0.5-0.9
	c0.1-0.4,0.5-0.6,0.9-0.5l3.5,1.1C12.5,15.9,12.8,16.3,12.6,16.7C12.7,16.7,12.6,16.7,12.6,16.7L12.6,16.7z M10.3,13.5
	c-0.1,0-0.1,0-0.2,0l-1.9-0.5c-0.4-0.1-0.6-0.5-0.5-0.9c0.1-0.4,0.5-0.6,0.9-0.5l1.9,0.5c0.4,0.1,0.6,0.5,0.5,0.9
	C10.9,13.3,10.6,13.5,10.3,13.5L10.3,13.5z"/>
</svg>
