<?xml version="1.0" encoding="utf-8"?>
<!-- Generator: Adobe Illustrator 23.0.4, SVG Export Plug-In . SVG Version: 6.00 Build 0)  -->
<svg version="1.1" id="图层_1" xmlns="http://www.w3.org/2000/svg" xmlns:xlink="http://www.w3.org/1999/xlink" x="0px" y="0px"
	 viewBox="0 0 28 28" style="enable-background:new 0 0 28 28;" xml:space="preserve">
<style type="text/css">
	.st0{fill:#F0B618;}
	.st1{fill-rule:evenodd;clip-rule:evenodd;fill:#FFFFFF;}
</style>
<rect id="矩形_21" class="st0" width="28" height="28"/>
<path id="形状_23_拷贝" class="st1" d="M19.9,21.2H8.1C7,21.2,6.1,20.3,6,19.2V12c0.1-1.1,1-2,2.1-1.9h1.1v-1
	c0.1-1.1,1-2,2.1-1.9h5.3c1.1-0.1,2.1,0.8,2.1,1.9v1h1.1C21,10,21.9,10.9,22,12v7.3C21.9,20.3,21,21.2,19.9,21.2z M8.1,20.2h11.7
	c0.1,0,0.3,0,0.4-0.1c-0.1,0-0.2,0-0.4,0L8.1,20.2c-0.1,0-0.3,0-0.4-0.1C7.9,20.2,8,20.2,8.1,20.2z M9.2,11H8.1
	c-0.1,0-0.3,0-0.4,0.1c0.1,0,0.3,0,0.4,0L9.2,11L9.2,11z M16.7,8.1h-5.3c-0.1,0-0.3,0-0.4,0.1c0.1,0,0.3,0,0.4,0L16.7,8.1
	c0.1,0,0.3,0,0.4,0.1C16.9,8.1,16.8,8.1,16.7,8.1z M16.7,9.1h-5.3c-0.5,0-1,0.4-1.1,0.9h7.4C17.7,9.5,17.2,9.1,16.7,9.1z M17.7,11
	h-7.5v0L17.7,11C17.7,11,17.7,11,17.7,11z M19.9,11h-1.1v0L19.9,11c0.1,0,0.3,0,0.4,0.1C20.1,11,20,11,19.9,11L19.9,11z M20.9,18.2
	V13c0-0.6-0.5-1-1.1-1H8.1c-0.6,0-1,0.4-1.1,1v5.3c0,0.6,0.5,1,1.1,1h11.7C20.4,19.2,20.9,18.8,20.9,18.2L20.9,18.2L20.9,18.2z
	 M14.5,17.7v1h-1.1v-1.9h-2.1v-1h2.1v0h-2.1v-1h2.1v-1.9h1.1v1.9h2.1v1h-2.1v0h2.1v1h-2.1L14.5,17.7L14.5,17.7z"/>
</svg>
