<?xml version="1.0" encoding="utf-8"?>
<!-- Generator: Adobe Illustrator 23.0.4, SVG Export Plug-In . SVG Version: 6.00 Build 0)  -->
<svg version="1.1" id="图层_1" xmlns="http://www.w3.org/2000/svg" xmlns:xlink="http://www.w3.org/1999/xlink" x="0px" y="0px"
	 viewBox="0 0 18 19" style="enable-background:new 0 0 18 19;" xml:space="preserve">
<style type="text/css">
	.st0{fill-rule:evenodd;clip-rule:evenodd;fill:#F47672;}
</style>
<path id="形状_37_拷贝_2" class="st0" d="M18,9.4c0,5-4,9-9,9c-5,0-9-4-9-9c0-5,4-9,9-9C14,0.4,18,4.4,18,9.4
	C18,9.4,18,9.4,18,9.4z M10.5,3.4h-3C7.6,6.2,7.8,9,7.9,11.9h2.2C10.2,9,10.4,6.2,10.5,3.4L10.5,3.4L10.5,3.4z M8.9,15.9
	c0.8,0,1.5-0.7,1.5-1.5c0-0.8-0.7-1.5-1.5-1.5c-0.8,0-1.5,0.6-1.5,1.4c0,0,0,0.1,0,0.1c0,0.8,0.6,1.5,1.4,1.5
	C8.9,15.9,8.9,15.9,8.9,15.9L8.9,15.9L8.9,15.9z"/>
</svg>
