<?xml version="1.0" encoding="utf-8"?>
<!-- Generator: Adobe Illustrator 23.0.4, SVG Export Plug-In . SVG Version: 6.00 Build 0)  -->
<svg version="1.1" id="图层_1" xmlns="http://www.w3.org/2000/svg" xmlns:xlink="http://www.w3.org/1999/xlink" x="0px" y="0px"
	 viewBox="0 0 18 18" style="enable-background:new 0 0 18 18;" xml:space="preserve">
<style type="text/css">
	.st0{fill-rule:evenodd;clip-rule:evenodd;fill:#2FBBFB;}
</style>
<path id="形状_21_拷贝_2" class="st0" d="M9,0c5,0,9,4,9,9s-4,9-9,9s-9-4-9-9S4,0,9,0z M12.6,6l-5.2,4.9L5.1,8.1
	C4.6,8,4.1,8,3.7,8.1C3.3,8.4,3.2,8.9,3.5,9.2c0,0.1,0.1,0.1,0.2,0.2l2.9,3.2c0.4,0.3,1,0.3,1.5,0l6-5.5c0.3-0.2,0.4-0.6,0.2-0.9
	C14.2,6.1,14.1,6,14,6C13.6,5.7,13,5.7,12.6,6"/>
</svg>
