<?xml version="1.0" encoding="utf-8"?>
<!-- Generator: Adobe Illustrator 23.0.4, SVG Export Plug-In . SVG Version: 6.00 Build 0)  -->
<svg version="1.1" id="图层_1" xmlns="http://www.w3.org/2000/svg" xmlns:xlink="http://www.w3.org/1999/xlink" x="0px" y="0px"
	 viewBox="0 0 17 17" style="enable-background:new 0 0 17 17;" xml:space="preserve">
<style type="text/css">
	.st0{fill:#0096DB;}
	.st1{fill-rule:evenodd;clip-rule:evenodd;fill:#FFFFFF;}
</style>
<circle id="椭圆_6_拷贝_4" class="st0" cx="8.5" cy="8.5" r="8.5"/>
<path id="形状_22_拷贝_5" class="st1" d="M7,11.8c0-0.8,0.7-1.4,1.5-1.3c0,0,0,0,0.1,0C9.3,10.4,10,11,10,11.7c0,0,0,0,0,0.1
	c0,0.8-0.7,1.4-1.5,1.3c0,0-0.1,0-0.1,0C7.7,13.2,7,12.6,7,11.8C7,11.8,7,11.8,7,11.8L7,11.8L7,11.8z M7.2,5.9L7.1,4.5
	c0-0.3,0.3-0.6,0.6-0.6c0,0,0,0,0,0h1.6c0.3,0,0.6,0.2,0.6,0.6c0,0,0,0,0,0L9.9,5.9c0,0,0,0,0,0.1L9.4,9.2C9.3,9.5,9.1,9.8,8.8,9.7
	H8.2c-0.3,0-0.6-0.2-0.6-0.5L7.2,5.9C7.2,5.9,7.1,5.9,7.2,5.9L7.2,5.9L7.2,5.9z"/>
</svg>
