<?xml version="1.0" encoding="utf-8"?>
<!-- Generator: Adobe Illustrator 23.0.4, SVG Export Plug-In . SVG Version: 6.00 Build 0)  -->
<svg version="1.1" id="图层_1" xmlns="http://www.w3.org/2000/svg" xmlns:xlink="http://www.w3.org/1999/xlink" x="0px" y="0px"
	 viewBox="0 0 18 20" style="enable-background:new 0 0 18 20;" xml:space="preserve">
<style type="text/css">
	.st0{fill-rule:evenodd;clip-rule:evenodd;fill:#2FBBFB;}
</style>
<path id="形状_38_拷贝_2" class="st0" d="M9,1C4,1,0,5,0,10s4,9,9,9.1c5,0,9-4,9.1-9c0,0,0,0,0,0C18,5,14,1,9,1L9,1z M12.1,13.6
	l-0.3,0.3c-0.6,0.2-1.3,0.2-1.9,0l-1.6-1.6c-0.6-0.4-1.1-1-1.5-1.7V5c0-0.3,1.4-0.6,1.7-0.6h0.4c0.3,0,0.6,0.3,0.6,0.6c0,0,0,0,0,0
	v5.1l2.7,2.7C12.4,13.1,12.4,13.4,12.1,13.6C12.1,13.6,12.1,13.6,12.1,13.6L12.1,13.6L12.1,13.6z"/>
</svg>
