<?xml version="1.0" encoding="utf-8"?>
<!-- Generator: Adobe Illustrator 23.0.4, SVG Export Plug-In . SVG Version: 6.00 Build 0)  -->
<svg version="1.1" id="图层_1" xmlns="http://www.w3.org/2000/svg" xmlns:xlink="http://www.w3.org/1999/xlink" x="0px" y="0px"
	 viewBox="0 0 31 24" style="enable-background:new 0 0 31 24;" xml:space="preserve">
<style type="text/css">
	.st0{fill-rule:evenodd;clip-rule:evenodd;fill:#7C7F84;}
</style>
<path id="形状_8" class="st0" d="M28.8,16.7l-13.1,4.7L2.1,16.5c-0.6-0.2-1.2,0-1.5,0.6c-0.2,0.5,0,1.1,0.5,1.3c0,0,0.1,0,0.1,0
	l14,5c0.3,0.1,0.6,0.1,0.9,0l13.5-4.9c0.5-0.2,0.8-0.7,0.6-1.2c0,0,0-0.1,0-0.1C30,16.7,29.4,16.5,28.8,16.7L28.8,16.7L28.8,16.7z
	 M1.2,7.4l14,5c0.3,0.1,0.6,0.1,0.9,0l13.5-4.9c0.4-0.1,0.7-0.5,0.7-1c0-0.4-0.3-0.8-0.7-1l-14-5c-0.3-0.1-0.6-0.1-1,0L1.2,5.5
	C0.9,5.6,0.7,5.8,0.5,6c-0.1,0.3-0.1,0.6,0,0.8C0.7,7.1,0.9,7.3,1.2,7.4L1.2,7.4L1.2,7.4z M4.8,6.4L4.8,6.4z M4.8,6.4l24,4.9
	L15.7,16L2.1,11.2c-0.6-0.2-1.2,0-1.5,0.6c-0.2,0.5,0,1.1,0.5,1.3c0,0,0.1,0,0.1,0l14,5c0.3,0.1,0.6,0.1,0.9,0l13.5-4.9
	c0.5-0.2,0.8-0.7,0.6-1.2c0,0,0-0.1,0-0.1c-0.3-0.5-0.9-0.8-1.5-0.6v0L4.8,6.4z"/>
</svg>
