<?xml version="1.0" encoding="utf-8"?>
<!-- Generator: Adobe Illustrator 23.0.4, SVG Export Plug-In . SVG Version: 6.00 Build 0)  -->
<svg version="1.1" id="图层_1" xmlns="http://www.w3.org/2000/svg" xmlns:xlink="http://www.w3.org/1999/xlink" x="0px" y="0px"
	 viewBox="0 0 31 22" style="enable-background:new 0 0 31 22;" xml:space="preserve">
<style type="text/css">
	.st0{fill-rule:evenodd;clip-rule:evenodd;fill:#0096DB;}
</style>
<path id="形状_9" class="st0" d="M18.6,5.7H26v2.2h-7.5V5.7z M18.6,10H26v2.2h-7.5V10L18.6,10z M18.6,14.3H26v2.2h-7.5V14.3
	L18.6,14.3z M28.2,0.3H2.5c-1.2,0-2.1,1-2.1,2.2v17.3c0,1.2,1,2.2,2.1,2.2h25.7c1.2,0,2.1-1,2.1-2.2V2.4C30.3,1.3,29.4,0.3,28.2,0.3
	L28.2,0.3z M14.3,11.1c0,0.2-0.1,0.4-0.3,0.4l-1.3,0.3c-0.1,0-0.3,0.1-0.3,0.3c0,0.1-0.1,0.2-0.1,0.3c-0.1,0.1-0.1,0.3,0,0.4
	l0.7,1.1c0.1,0.2,0.1,0.4-0.1,0.5l-0.7,0.7c-0.1,0.1-0.4,0.2-0.5,0.1l-1.1-0.7c-0.1-0.1-0.3-0.1-0.4,0c-0.1,0.1-0.2,0.1-0.3,0.1
	c-0.1,0.1-0.2,0.2-0.3,0.3l-0.3,1.3c0,0.2-0.2,0.3-0.4,0.3h-1c-0.2,0-0.4-0.1-0.4-0.3l-0.3-1.3c0-0.1-0.1-0.3-0.3-0.3
	c-0.1,0-0.2-0.1-0.3-0.1c-0.1-0.1-0.3-0.1-0.4,0l-1.1,0.7c-0.2,0.1-0.4,0.1-0.5-0.1l-0.7-0.7c-0.1-0.1-0.2-0.4-0.1-0.5l0.7-1.1
	c0.1-0.1,0.1-0.3,0-0.4c-0.1-0.1-0.1-0.2-0.1-0.3c0-0.1-0.2-0.2-0.3-0.3l-1.3-0.3c-0.2,0-0.3-0.2-0.3-0.4v-1c0-0.2,0.1-0.4,0.3-0.4
	l1.3-0.3c0.1,0,0.3-0.1,0.3-0.3c0-0.1,0.1-0.2,0.1-0.3c0.1-0.1,0.1-0.3,0-0.4L3.8,7.2C3.7,7.1,3.7,6.8,3.9,6.7L4.6,6
	c0.1-0.1,0.4-0.2,0.5-0.1l1.1,0.7c0.1,0.1,0.3,0.1,0.4,0c0.1-0.1,0.2-0.1,0.3-0.1c0.1-0.1,0.2-0.2,0.3-0.3l0.3-1.3
	c0-0.2,0.2-0.3,0.4-0.3h1c0.2,0,0.4,0.1,0.4,0.3l0.3,1.3c0,0.1,0.1,0.3,0.3,0.3c0.1,0,0.2,0.1,0.3,0.1c0.1,0.1,0.3,0.1,0.4,0
	l1.1-0.7c0.2-0.1,0.4-0.1,0.5,0.1l0.7,0.7C13,6.8,13.1,7.1,13,7.2l-0.7,1.1c-0.1,0.1-0.1,0.3,0,0.4c0.1,0.1,0.1,0.2,0.1,0.3
	c0,0.1,0.2,0.2,0.3,0.3l1.3,0.3c0.2,0,0.3,0.2,0.3,0.4L14.3,11.1L14.3,11.1z M28.2,19.7H16.4V2.4h11.8V19.7z M8.4,8
	C7,8,5.8,9.1,5.8,10.5s1.1,2.5,2.5,2.6c0.9,0,1.6-0.4,2.1-1.1c0.7-1,0.5-2.4-0.3-3.2C9.7,8.3,9.1,8,8.4,8L8.4,8z"/>
</svg>
