<?xml version="1.0" encoding="utf-8"?>
<!-- Generator: Adobe Illustrator 23.0.4, SVG Export Plug-In . SVG Version: 6.00 Build 0)  -->
<svg version="1.1" id="图层_1" xmlns="http://www.w3.org/2000/svg" xmlns:xlink="http://www.w3.org/1999/xlink" x="0px" y="0px"
	 viewBox="0 0 31 22" style="enable-background:new 0 0 31 22;" xml:space="preserve">
<style type="text/css">
	.st0{fill-rule:evenodd;clip-rule:evenodd;fill:#0096DB;}
</style>
<path id="形状_7" class="st0" d="M18.9,5.4h7.5v2.2h-7.5V5.4z M18.9,9.7h7.5v2.2h-7.5V9.7z M18.9,14.1h7.5v2.2h-7.5V14.1
	L18.9,14.1z M28.5,0H2.8C1.6,0,0.7,1,0.7,2.2v17.3c0,1.2,1,2.2,2.1,2.2h25.7c1.2,0,2.1-1,2.1-2.2V2.2C30.7,1,29.7,0,28.5,0L28.5,0z
	 M8.7,13.7l-1.5,1.4l-4.4-4.3l1.5-1.4l2.9,2.9l5.9-5.8l1.5,1.4L8.7,13.7z M28.5,19.5H16.8V2.2h11.8L28.5,19.5L28.5,19.5z"/>
</svg>
